<?xml version="1.0" encoding="UTF-8" standalone="no"?>
<svg
   viewBox="0 0 399.69267 96.409778"
   version="1.1"
   id="svg19"
   sodipodi:docname="hfut.svg"
   width="399.69266"
   height="96.409782"
   inkscape:version="1.2.2 (b0a8486541, 2022-12-01)"
   xmlns:inkscape="http://www.inkscape.org/namespaces/inkscape"
   xmlns:sodipodi="http://sodipodi.sourceforge.net/DTD/sodipodi-0.dtd"
   xmlns="http://www.w3.org/2000/svg"
   xmlns:svg="http://www.w3.org/2000/svg">
  <sodipodi:namedview
     id="namedview19"
     pagecolor="#ffffff"
     bordercolor="#000000"
     borderopacity="0.25"
     inkscape:showpageshadow="2"
     inkscape:pageopacity="0.0"
     inkscape:pagecheckerboard="0"
     inkscape:deskcolor="#d1d1d1"
     inkscape:zoom="1.231239"
     inkscape:cx="275.7385"
     inkscape:cy="68.22396"
     inkscape:window-width="1503"
     inkscape:window-height="933"
     inkscape:window-x="0"
     inkscape:window-y="0"
     inkscape:window-maximized="1"
     inkscape:current-layer="svg19"
     showgrid="false" />
  <defs
     id="defs1">
    <style
       id="style1">.cls-1,.cls-2{fill:#040000;}.cls-2,.cls-3{fill-rule:evenodd;}.cls-3,.cls-4{fill:#aa1f25;}</style>
  </defs>
  <g
     id="图层_2"
     data-name="图层 2"
     transform="scale(0.71193165)">
    <g
       id="图层_1-2"
       data-name="图层 1">
      <path
         class="cls-1"
         d="m 75.59,122 a 2.4,2.4 0 0 1 0.6,0.8 2.67,2.67 0 0 1 0.27,1.06 3,3 0 0 1 -0.1,1.1 2.52,2.52 0 0 1 -0.47,0.87 2.22,2.22 0 0 1 -0.7,0.56 2.71,2.71 0 0 1 -0.9,0.27 2.23,2.23 0 0 1 -1.76,-0.57 2,2 0 0 1 -0.56,-0.8 3.14,3.14 0 0 1 -0.17,-2.13 2.38,2.38 0 0 1 0.47,-0.86 2.58,2.58 0 0 1 0.73,-0.6 2.71,2.71 0 0 1 0.9,-0.27 2.43,2.43 0 0 1 1,0.1 3,3 0 0 1 0.73,0.47 z m 42.56,-34.1 a 1.13,1.13 0 0 0 0,0.2 v 0.2 c 0,0.1 0,0.17 0,0.23 a 1.15,1.15 0 0 0 0.13,0.27 c 0.17,0.27 0.33,0.53 0.5,0.77 l 0.66,0.93 a 3,3 0 0 0 0.27,0.3 2.18,2.18 0 0 0 0.33,0.2 l 0.87,0.4 a 0.51,0.51 0 0 0 0.23,0 0.28,0.28 0 0 0 0.2,-0.1 1.47,1.47 0 0 0 0.17,-0.2 3.09,3.09 0 0 0 0.16,-0.27 l 0.24,0.1 -1,2.13 -0.23,-0.1 c 0,-0.06 0.06,-0.16 0.1,-0.26 a 1.74,1.74 0 0 0 0.06,-0.27 0.48,0.48 0 0 0 -0.06,-0.23 0.34,0.34 0 0 0 -0.2,-0.14 l -1.1,-0.49 a 1,1 0 0 0 -0.2,0 h -0.37 c -0.29,0 -0.63,0 -1,0.07 -0.37,0.07 -0.67,0.07 -0.94,0.07 a 1.12,1.12 0 0 0 -0.36,0.06 l -0.23,0.1 c -0.07,0 -0.1,0.1 -0.17,0.17 a 0.75,0.75 0 0 1 -0.13,0.16 l -0.24,-0.1 0.87,-1.92 0.23,0.09 a 3.68,3.68 0 0 0 -0.16,0.47 c 0,0.1 0,0.17 0,0.17 h 0.7 a 5.72,5.72 0 0 0 0.7,-0.07 c 0.23,0 0.53,0 0.93,-0.07 -0.4,-0.56 -0.7,-1 -0.9,-1.33 a 3.14,3.14 0 0 0 -0.43,-0.5 0.12,0.12 0 0 0 -0.14,0 c 0,0 -0.1,0.07 -0.13,0.1 -0.03,0.03 -0.1,0.1 -0.13,0.2 l -0.1,0.2 -0.24,-0.1 0.7,-1.56 0.34,0.13 z m 0.53,5.49 a 1.18,1.18 0 0 1 -0.07,0.2 1.84,1.84 0 0 1 -0.06,0.23 0.47,0.47 0 0 0 0.06,0.2 0.39,0.39 0 0 0 0.17,0.14 l 0.33,0.2 a 3.52,3.52 0 0 0 0.5,0.26 l 0.23,0.1 a 4.28,4.28 0 0 1 -0.16,1 3.59,3.59 0 0 1 -0.34,0.86 2.36,2.36 0 0 1 -0.6,0.74 2.27,2.27 0 0 1 -0.79,0.43 2.42,2.42 0 0 1 -1,0.1 2.61,2.61 0 0 1 -1,-0.34 2.55,2.55 0 0 1 -0.83,-0.66 2.65,2.65 0 0 1 -0.5,-0.87 2.37,2.37 0 0 1 -0.1,-1 2.44,2.44 0 0 1 0.3,-1 2.72,2.72 0 0 1 0.43,-0.59 3.26,3.26 0 0 1 0.47,-0.37 l -0.14,-0.23 0.14,-0.24 1.56,0.8 -0.13,0.27 a 4.17,4.17 0 0 0 -0.6,-0.1 1.81,1.81 0 0 0 -0.57,0 1.12,1.12 0 0 0 -0.5,0.2 1,1 0 0 0 -0.39,0.46 1.61,1.61 0 0 0 -0.2,0.67 1.15,1.15 0 0 0 0.16,0.66 1.75,1.75 0 0 0 0.5,0.64 4.23,4.23 0 0 0 1.63,0.9 2.22,2.22 0 0 0 0.8,0.06 1.57,1.57 0 0 0 0.7,-0.23 1.65,1.65 0 0 0 0.5,-0.57 1.05,1.05 0 0 0 0.16,-0.53 0.66,0.66 0 0 0 0,-0.4 l -0.3,-0.2 a 1.48,1.48 0 0 1 -0.26,-0.16 l -0.23,-0.14 a 1.08,1.08 0 0 1 -0.24,-0.1 0.31,0.31 0 0 0 -0.23,0.07 l -0.23,0.23 a 1.88,1.88 0 0 0 -0.17,0.27 l -0.23,-0.13 1,-1.93 0.2,0.06 z m -5.06,4 a 2.29,2.29 0 0 1 1,0 2.63,2.63 0 0 1 1,0.47 2.78,2.78 0 0 1 0.8,0.76 2.55,2.55 0 0 1 0.4,0.9 2.08,2.08 0 0 1 0,0.93 2.86,2.86 0 0 1 -0.36,0.87 2.91,2.91 0 0 1 -0.7,0.7 3.06,3.06 0 0 1 -0.87,0.33 2.44,2.44 0 0 1 -1,-0.07 3.51,3.51 0 0 1 -1,-0.43 3.47,3.47 0 0 1 -0.8,-0.77 2.61,2.61 0 0 1 -0.4,-0.89 2.48,2.48 0 0 1 0,-0.94 3,3 0 0 1 0.37,-0.86 2.51,2.51 0 0 1 0.67,-0.67 1.71,1.71 0 0 1 0.86,-0.36 z m 2.63,2.43 a 1.9,1.9 0 0 0 -0.43,-0.64 9,9 0 0 0 -0.7,-0.59 4.22,4.22 0 0 0 -0.83,-0.44 2.31,2.31 0 0 0 -0.77,-0.16 1.47,1.47 0 0 0 -0.66,0.13 1.32,1.32 0 0 0 -0.5,0.47 1.13,1.13 0 0 0 -0.24,0.69 1.37,1.37 0 0 0 0.17,0.7 2.61,2.61 0 0 0 0.47,0.64 5.91,5.91 0 0 0 0.66,0.56 3.13,3.13 0 0 0 0.8,0.43 2.14,2.14 0 0 0 0.77,0.17 1.47,1.47 0 0 0 0.66,-0.13 1.67,1.67 0 0 0 0.53,-0.47 1.19,1.19 0 0 0 0.24,-0.66 2.56,2.56 0 0 0 -0.17,-0.7 z m -2.8,3 1.07,1 -2.5,3 -0.2,-0.17 a 1.21,1.21 0 0 0 0.14,-0.2 0.68,0.68 0 0 0 0.1,-0.19 0.23,0.23 0 0 0 0,-0.2 c 0,-0.07 -0.07,-0.14 -0.14,-0.17 l -2.72,-2.3 a 0.34,0.34 0 0 0 -0.2,-0.1 0.21,0.21 0 0 0 -0.2,0 0.49,0.49 0 0 0 -0.2,0.13 c -0.07,0.07 -0.14,0.1 -0.2,0.17 l -0.2,-0.17 1.36,-1.6 0.2,0.17 c 0,0.07 -0.1,0.13 -0.13,0.2 a 0.49,0.49 0 0 0 -0.1,0.2 0.3,0.3 0 0 0 0,0.23 0.37,0.37 0 0 0 0.13,0.17 l 2.53,2.16 a 1,1 0 0 0 0.3,0.2 0.26,0.26 0 0 0 0.23,0 c 0.07,0 0.14,-0.06 0.24,-0.13 l 0.3,-0.33 c 0.06,-0.07 0.1,-0.14 0.16,-0.2 a 1.66,1.66 0 0 0 0.17,-0.24 l 0.1,-0.19 a 0.43,0.43 0 0 0 0,-0.17 3.23,3.23 0 0 0 -0.17,-0.57 4.46,4.46 0 0 0 -0.23,-0.53 l 0.13,-0.23 z m -5.55,2.09 a 2.43,2.43 0 0 1 1,0.24 3,3 0 0 1 0.9,0.63 2.63,2.63 0 0 1 0.63,0.9 2.36,2.36 0 0 1 0.2,1 2.85,2.85 0 0 1 -0.16,0.9 2.14,2.14 0 0 1 -0.54,0.77 2.26,2.26 0 0 1 -1.76,0.66 2.45,2.45 0 0 1 -0.93,-0.23 3.76,3.76 0 0 1 -0.87,-0.6 3.29,3.29 0 0 1 -0.63,-0.9 2.43,2.43 0 0 1 -0.2,-1 2.9,2.9 0 0 1 0.17,-0.94 2.17,2.17 0 0 1 0.53,-0.76 2.54,2.54 0 0 1 0.8,-0.53 2.82,2.82 0 0 1 0.9,-0.14 z m 2.13,2.9 a 3.75,3.75 0 0 0 -0.3,-0.73 3,3 0 0 0 -0.57,-0.7 6.42,6.42 0 0 0 -0.73,-0.6 1.83,1.83 0 0 0 -0.73,-0.3 1.51,1.51 0 0 0 -0.67,0 1.33,1.33 0 0 0 -0.6,0.37 1.08,1.08 0 0 0 -0.36,0.63 1.84,1.84 0 0 0 0,0.7 2.6,2.6 0 0 0 0.33,0.7 3.91,3.91 0 0 0 0.57,0.66 6.22,6.22 0 0 0 0.7,0.6 1.48,1.48 0 0 0 0.7,0.3 1.06,1.06 0 0 0 0.66,0 1.11,1.11 0 0 0 0.6,-0.37 1.33,1.33 0 0 0 0.37,-0.6 2.43,2.43 0 0 0 0,-0.66 z m -5.43,-0.07 a 3.05,3.05 0 0 1 -0.19,0.24 0.56,0.56 0 0 0 -0.14,0.26 0.44,0.44 0 0 0 0.1,0.37 3.27,3.27 0 0 0 0.37,0.5 l 2.33,2.72 -0.24,0.2 -4.83,-1.14 1.63,1.93 a 3,3 0 0 0 0.46,0.47 0.56,0.56 0 0 0 0.34,0.13 0.87,0.87 0 0 0 0.33,-0.1 1.2,1.2 0 0 0 0.3,-0.16 l 0.16,0.2 -1.53,1.29 -0.16,-0.2 0.2,-0.26 c 0.1,-0.14 0.13,-0.2 0.13,-0.27 a 0.43,0.43 0 0 0 -0.07,-0.33 2.49,2.49 0 0 0 -0.4,-0.53 l -1.56,-1.83 a 1.31,1.31 0 0 0 -0.23,-0.2 0.5,0.5 0 0 0 -0.27,-0.1 2,2 0 0 0 -0.37,0.06 3.34,3.34 0 0 0 -0.33,0.17 l -0.16,-0.2 1.06,-0.9 4.49,1.07 -1.5,-1.77 a 2.79,2.79 0 0 0 -0.46,-0.46 0.54,0.54 0 0 0 -0.33,-0.14 1.08,1.08 0 0 0 -0.34,0.1 l -0.3,0.17 -0.16,-0.2 1.53,-1.3 0.16,0.2 z m -1.6,7.51 -1.73,1.2 -0.13,-0.2 a 1.47,1.47 0 0 1 0.2,-0.17 0.58,0.58 0 0 0 0.16,-0.16 0.44,0.44 0 0 0 0.07,-0.2 0.26,0.26 0 0 0 -0.1,-0.2 l -1,-1.47 -1.93,1.33 1,1.44 c 0,0.06 0.1,0.13 0.16,0.13 a 0.58,0.58 0 0 0 0.24,0 l 0.2,-0.06 0.23,-0.1 0.13,0.19 -1.73,1.2 -0.13,-0.2 a 1,1 0 0 1 0.2,-0.16 1.3,1.3 0 0 0 0.17,-0.17 0.51,0.51 0 0 0 0.06,-0.2 0.28,0.28 0 0 0 -0.1,-0.2 l -2.06,-3 c 0,-0.07 -0.1,-0.1 -0.17,-0.14 a 0.44,0.44 0 0 0 -0.2,0 0.71,0.71 0 0 0 -0.23,0.07 0.83,0.83 0 0 0 -0.23,0.1 l -0.14,-0.2 1.73,-1.2 0.14,0.2 c -0.07,0 -0.1,0.1 -0.17,0.17 -0.07,0.07 -0.13,0.13 -0.13,0.16 a 0.24,0.24 0 0 0 -0.07,0.2 0.28,0.28 0 0 0 0.1,0.2 l 0.9,1.27 1.93,-1.34 -0.87,-1.26 a 0.29,0.29 0 0 0 -0.16,-0.13 0.38,0.38 0 0 0 -0.2,0 1,1 0 0 0 -0.23,0.07 1.94,1.94 0 0 0 -0.24,0.1 l -0.13,-0.2 1.73,-1.2 0.13,0.2 a 0.88,0.88 0 0 0 -0.16,0.17 c -0.07,0.07 -0.14,0.13 -0.14,0.16 a 0.27,0.27 0 0 0 -0.06,0.2 0.26,0.26 0 0 0 0.1,0.2 l 2.06,3 a 0.23,0.23 0 0 0 0.17,0.13 0.51,0.51 0 0 0 0.23,0 l 0.2,-0.06 0.23,-0.1 v 0.26 z m -9.88,4.23 0.53,1.36 -3.65,1.73 -0.1,-0.23 0.23,-0.13 a 1.94,1.94 0 0 0 0.2,-0.14 c 0.06,-0.06 0.06,-0.13 0.1,-0.2 a 0.38,0.38 0 0 0 0,-0.2 l -1.53,-3.22 a 0.28,0.28 0 0 0 -0.13,-0.17 0.36,0.36 0 0 0 -0.2,-0.07 0.66,0.66 0 0 0 -0.26,0 1.36,1.36 0 0 0 -0.24,0.06 l -0.1,-0.23 3.5,-1.6 0.5,1.1 -0.24,0.1 a 3.12,3.12 0 0 0 -0.5,-0.4 c -0.23,-0.1 -0.4,-0.17 -0.53,-0.1 l -0.23,0.1 a 1.3,1.3 0 0 0 -0.3,0.13 l -0.7,0.34 0.83,1.79 0.5,-0.23 a 0.85,0.85 0 0 0 0.33,-0.2 0.59,0.59 0 0 0 0.14,-0.23 0.51,0.51 0 0 0 0,-0.3 1.07,1.07 0 0 0 -0.07,-0.33 l 0.23,-0.1 0.8,1.76 -0.23,0.1 a 2,2 0 0 0 -0.23,-0.3 0.92,0.92 0 0 0 -0.24,-0.2 0.48,0.48 0 0 0 -0.3,-0.07 2,2 0 0 0 -0.33,0.1 l -0.5,0.24 0.63,1.36 c 0.07,0.13 0.14,0.23 0.17,0.3 a 0.57,0.57 0 0 0 0.2,0.13 0.93,0.93 0 0 0 0.27,0 c 0.1,0 0.23,-0.1 0.39,-0.17 a 1.29,1.29 0 0 0 0.27,-0.13 1.29,1.29 0 0 1 0.27,-0.13 1.5,1.5 0 0 0 0.23,-0.17 c 0.07,-0.07 0.13,-0.13 0.13,-0.17 a 3.69,3.69 0 0 0 0.1,-0.59 v -0.57 l 0.17,-0.13 z m -5,-0.07 -0.23,0.07 a 2.12,2.12 0 0 0 -0.2,-0.24 2,2 0 0 0 -0.3,-0.23 l -0.3,-0.2 c -0.1,0 -0.2,-0.07 -0.27,0 a 1.11,1.11 0 0 0 -0.27,0.06 l -0.29,0.1 -0.2,0.07 1.36,3.76 a 0.76,0.76 0 0 0 0.13,0.2 0.6,0.6 0 0 0 0.2,0.07 0.88,0.88 0 0 0 0.27,0 2.6,2.6 0 0 0 0.3,-0.06 l 0.1,0.23 -2.23,0.8 -0.1,-0.23 a 2.38,2.38 0 0 0 0.27,-0.14 1.2,1.2 0 0 0 0.23,-0.13 0.64,0.64 0 0 0 0.13,-0.17 0.72,0.72 0 0 0 0,-0.23 l -1.37,-3.79 -0.2,0.06 a 1.09,1.09 0 0 1 -0.26,0.1 1.35,1.35 0 0 0 -0.3,0.14 0.35,0.35 0 0 0 -0.17,0.2 c 0,0.1 -0.1,0.23 -0.13,0.33 a 2,2 0 0 0 -0.07,0.37 v 0.29 l -0.23,0.1 -0.47,-1.26 4.1,-1.46 0.53,1.26 z m -7.59,2.36 h -0.26 a 1.73,1.73 0 0 0 -0.4,-0.54 1,1 0 0 0 -0.5,-0.26 0.93,0.93 0 0 0 -0.27,0 1.15,1.15 0 0 0 -0.33,0.07 l -0.83,0.13 0.36,2 0.57,-0.1 a 1,1 0 0 0 0.4,-0.13 0.63,0.63 0 0 0 0.2,-0.2 0.57,0.57 0 0 0 0.06,-0.27 0.55,0.55 0 0 0 0,-0.36 h 0.27 l 0.33,1.89 h -0.26 a 3.57,3.57 0 0 0 -0.14,-0.34 2.7,2.7 0 0 0 -0.16,-0.26 0.7,0.7 0 0 0 -0.3,-0.14 1.62,1.62 0 0 0 -0.4,0 l -0.57,0.1 0.3,1.66 a 0.53,0.53 0 0 0 0.07,0.2 c 0,0.07 0.1,0.1 0.2,0.1 a 1,1 0 0 1 0.23,0 h 0.27 v 0.24 l -2.09,0.36 v -0.23 c 0.07,0 0.17,0 0.27,-0.07 l 0.23,-0.06 a 0.31,0.31 0 0 0 0.13,-0.17 0.23,0.23 0 0 0 0,-0.23 l -0.63,-3.53 a 0.51,0.51 0 0 0 -0.06,-0.2 0.2,0.2 0 0 0 -0.2,-0.1 0.74,0.74 0 0 0 -0.27,0 h -0.27 v -0.24 l 3.83,-0.69 0.26,1.29 z m -21,4.66 -2.23,-0.27 v -0.23 H 58 a 0.4,0.4 0 0 0 0.16,-0.1 0.3,0.3 0 0 0 0.07,-0.2 l 0.47,-3.56 v -0.2 a 0.44,0.44 0 0 0 -0.17,-0.16 0.81,0.81 0 0 0 -0.27,-0.1 0.78,0.78 0 0 0 -0.26,-0.07 v -0.23 l 2.23,0.26 v 0.24 h -0.27 a 0.66,0.66 0 0 0 -0.26,0 0.52,0.52 0 0 0 -0.2,0.1 0.4,0.4 0 0 0 -0.07,0.2 l -0.47,3.56 a 0.36,0.36 0 0 0 0,0.2 0.25,0.25 0 0 0 0.16,0.16 0.69,0.69 0 0 0 0.24,0.1 0.85,0.85 0 0 0 0.26,0.07 v 0.2 z m -11.51,-4.36 -0.63,1.33 -3.83,-1.49 0.1,-0.24 a 1.5,1.5 0 0 0 0.27,0.07 0.82,0.82 0 0 0 0.23,0 0.51,0.51 0 0 0 0.2,-0.06 0.84,0.84 0 0 0 0.13,-0.17 l 1.3,-3.33 a 0.44,0.44 0 0 0 0,-0.2 0.29,0.29 0 0 0 -0.1,-0.2 c 0,-0.06 -0.13,-0.1 -0.2,-0.16 a 1.58,1.58 0 0 0 -0.23,-0.14 l 0.1,-0.23 3.56,1.4 -0.43,1.1 -0.23,-0.1 a 1.51,1.51 0 0 0 -0.07,-0.64 0.74,0.74 0 0 0 -0.3,-0.46 1.74,1.74 0 0 0 -0.23,-0.1 3.08,3.08 0 0 0 -0.34,-0.13 l -0.73,-0.3 -0.59,1.86 0.53,0.2 a 1.35,1.35 0 0 0 0.4,0.1 0.9,0.9 0 0 0 0.27,-0.07 0.91,0.91 0 0 0 0.23,-0.2 1.34,1.34 0 0 0 0.17,-0.27 l 0.23,0.1 -0.7,1.8 -0.23,-0.1 a 1.28,1.28 0 0 0 0.07,-0.37 0.64,0.64 0 0 0 0,-0.3 0.68,0.68 0 0 0 -0.16,-0.26 0.83,0.83 0 0 0 -0.34,-0.17 l -0.53,-0.2 -0.53,1.4 a 0.83,0.83 0 0 0 -0.1,0.33 0.58,0.58 0 0 0 0,0.24 0.37,0.37 0 0 0 0.2,0.16 c 0.1,0 0.23,0.1 0.4,0.17 l 0.3,0.1 a 1.16,1.16 0 0 1 0.3,0.1 l 0.27,0.06 a 0.54,0.54 0 0 0 0.23,0 2.2,2.2 0 0 0 0.5,-0.36 2.43,2.43 0 0 0 0.4,-0.4 l 0.23,0.16 z m -9.75,-2.76 -1.93,-1.13 0.14,-0.2 0.23,0.13 c 0.1,0.07 0.2,0.07 0.23,0.1 0.03,0.03 0.17,0 0.2,0 0.03,0 0.1,-0.07 0.17,-0.17 l 1.79,-3.12 a 0.44,0.44 0 0 0 0.07,-0.2 0.26,0.26 0 0 0 -0.1,-0.2 0.48,0.48 0 0 0 -0.2,-0.2 0.76,0.76 0 0 0 -0.2,-0.17 l 0.13,-0.2 1.93,1.13 -0.13,0.2 a 1.74,1.74 0 0 0 -0.23,-0.1 0.88,0.88 0 0 0 -0.27,-0.06 0.26,0.26 0 0 0 -0.23,0 0.29,0.29 0 0 0 -0.13,0.16 L 38,118.41 a 0.6,0.6 0 0 0 -0.07,0.2 0.48,0.48 0 0 0 0.07,0.2 l 0.17,0.17 c 0.1,0.06 0.16,0.13 0.23,0.16 l -0.07,0.17 z m -14.05,-13.37 -1.2,0.86 -2.62,-3.19 0.19,-0.17 a 0.63,0.63 0 0 0 0.2,0.2 c 0.1,0.07 0.14,0.13 0.17,0.13 a 0.36,0.36 0 0 0 0.2,0 0.32,0.32 0 0 0 0.2,-0.1 l 2.76,-2.27 a 0.29,0.29 0 0 0 0.13,-0.16 0.25,0.25 0 0 0 0,-0.24 c 0,-0.06 0,-0.16 -0.1,-0.23 a 1,1 0 0 0 -0.13,-0.23 l 0.2,-0.17 2.43,3 -0.93,0.77 -0.17,-0.2 a 1.29,1.29 0 0 0 0.24,-0.6 0.68,0.68 0 0 0 0,-0.53 c 0,-0.07 -0.1,-0.14 -0.13,-0.2 a 2.1,2.1 0 0 1 -0.2,-0.27 l -0.5,-0.6 -1.57,1.26 0.37,0.43 a 0.81,0.81 0 0 0 0.3,0.27 0.62,0.62 0 0 0 0.26,0.06 1.32,1.32 0 0 0 0.3,-0.06 l 0.3,-0.14 0.17,0.2 -1.5,1.24 -0.17,-0.2 a 1,1 0 0 0 0.24,-0.3 1.57,1.57 0 0 0 0.13,-0.26 0.35,0.35 0 0 0 0,-0.3 0.87,0.87 0 0 0 -0.2,-0.3 l -0.37,-0.43 -1.16,0.93 c -0.1,0.1 -0.2,0.17 -0.27,0.23 a 0.27,0.27 0 0 0 -0.07,0.23 0.42,0.42 0 0 0 0.1,0.24 c 0.07,0.1 0.14,0.2 0.27,0.36 a 0.92,0.92 0 0 0 0.2,0.24 c 0.06,0.1 0.16,0.16 0.2,0.23 a 0.79,0.79 0 0 0 0.2,0.17 0.3,0.3 0 0 0 0.2,0.1 2,2 0 0 0 0.6,-0.07 l 0.53,-0.13 0.23,0.2 z m 72.1,13.64 a 1.88,1.88 0 0 1 -0.83,0.23 2,2 0 0 1 -0.87,-0.1 2.48,2.48 0 0 1 -0.8,-0.47 3.11,3.11 0 0 1 -0.66,-0.86 2.44,2.44 0 0 1 -0.33,-1 2.24,2.24 0 0 1 0.06,-1 3,3 0 0 1 0.4,-0.83 2.89,2.89 0 0 1 0.71,-0.55 2.35,2.35 0 0 1 0.64,-0.23 1.87,1.87 0 0 1 0.63,0 v -0.27 l 0.23,-0.13 0.83,1.53 -0.26,0.13 a 4.87,4.87 0 0 0 -0.4,-0.43 2,2 0 0 0 -0.47,-0.34 1,1 0 0 0 -0.53,-0.13 1.12,1.12 0 0 0 -0.53,0.13 1.24,1.24 0 0 0 -0.5,0.44 1.29,1.29 0 0 0 -0.23,0.63 2.28,2.28 0 0 0 0.06,0.8 3.43,3.43 0 0 0 0.37,0.9 2.92,2.92 0 0 0 0.5,0.7 3.08,3.08 0 0 0 0.63,0.46 1.8,1.8 0 0 0 0.7,0.17 1.5,1.5 0 0 0 0.66,-0.17 2.41,2.41 0 0 0 0.44,-0.33 2.27,2.27 0 0 0 0.26,-0.4 1,1 0 0 0 0.1,-0.47 1.77,1.77 0 0 0 0,-0.46 h 0.3 a 2.2,2.2 0 0 1 -0.2,1.3 2.9,2.9 0 0 1 -0.93,0.83 z m -81.55,-24.79 -0.86,-1.9 0.23,-0.1 a 1.32,1.32 0 0 0 0.13,0.2 1.21,1.21 0 0 0 0.14,0.2 c 0.06,0.07 0.1,0.1 0.16,0.1 a 0.75,0.75 0 0 0 0.24,0 l 1.63,-0.73 -1,-2.17 -1.6,0.74 a 0.29,0.29 0 0 0 -0.16,0.13 0.3,0.3 0 0 0 -0.07,0.2 0.82,0.82 0 0 0 0,0.23 c 0,0.1 0,0.17 0.07,0.24 l -0.23,0.09 -0.87,-1.89 0.24,-0.1 a 1.57,1.57 0 0 0 0.13,0.2 l 0.13,0.2 a 0.75,0.75 0 0 0 0.17,0.1 0.53,0.53 0 0 0 0.23,0 L 16.84,89 c 0.06,0 0.13,-0.07 0.16,-0.14 a 0.48,0.48 0 0 0 0.07,-0.2 0.49,0.49 0 0 0 0,-0.23 0.52,0.52 0 0 0 -0.06,-0.23 l 0.23,-0.1 0.87,1.9 -0.24,0.1 a 0.49,0.49 0 0 0 -0.13,-0.2 2,2 0 0 1 -0.13,-0.17 0.29,0.29 0 0 0 -0.2,-0.1 0.37,0.37 0 0 0 -0.2,0.07 l -1.43,0.63 1,2.16 1.4,-0.63 a 0.37,0.37 0 0 0 0.17,-0.13 0.56,0.56 0 0 0 0.06,-0.2 0.66,0.66 0 0 0 0,-0.24 0.42,0.42 0 0 0 -0.07,-0.23 l 0.24,-0.1 0.86,1.9 -0.23,0.1 a 0.66,0.66 0 0 0 -0.14,-0.2 l -0.13,-0.17 a 0.28,0.28 0 0 0 -0.2,-0.1 0.44,0.44 0 0 0 -0.2,0.07 L 15.14,94 a 0.39,0.39 0 0 0 -0.17,0.14 0.29,0.29 0 0 0 -0.06,0.2 0.82,0.82 0 0 0 0,0.23 0.9,0.9 0 0 0 0.07,0.23 h -0.24 z m 3.93,3.76 -1.3,0.66 -2.1,-3.56 0.2,-0.13 c 0,0.07 0.1,0.13 0.17,0.23 0.07,0.1 0.13,0.17 0.17,0.17 A 0.48,0.48 0 0 0 16,96 0.6,0.6 0 0 0 16.2,95.93 l 3.06,-1.8 a 0.75,0.75 0 0 0 0.16,-0.13 0.21,0.21 0 0 0 0,-0.2 1.28,1.28 0 0 0 -0.07,-0.26 1.94,1.94 0 0 0 -0.1,-0.24 l 0.2,-0.13 1.93,3.29 -1,0.6 -0.13,-0.23 a 1.66,1.66 0 0 0 0.33,-0.53 0.78,0.78 0 0 0 0.06,-0.54 l -0.1,-0.23 a 1.1,1.1 0 0 0 -0.16,-0.3 l -0.4,-0.66 -1.7,1 0.27,0.47 c 0.1,0.17 0.16,0.27 0.23,0.3 a 0.38,0.38 0 0 0 0.27,0.1 1,1 0 0 0 0.3,0 l 0.3,-0.1 0.13,0.23 -1.66,1 L 18,97.25 a 1.38,1.38 0 0 0 0.3,-0.25 1.08,1.08 0 0 0 0.17,-0.23 0.52,0.52 0 0 0 0,-0.3 3.19,3.19 0 0 0 -0.13,-0.34 l -0.3,-0.46 -1.3,0.76 a 1.72,1.72 0 0 0 -0.3,0.2 0.29,0.29 0 0 0 -0.1,0.2 0.44,0.44 0 0 0 0.07,0.27 2.08,2.08 0 0 0 0.2,0.4 c 0,0.06 0.1,0.16 0.16,0.26 a 1.88,1.88 0 0 1 0.17,0.27 l 0.16,0.2 a 0.67,0.67 0 0 0 0.2,0.13 2.74,2.74 0 0 0 0.6,0 1.83,1.83 0 0 0 0.54,-0.07 l 0.23,0.2 z m 4.39,2.36 -0.13,-0.2 a 1.3,1.3 0 0 0 0.3,-0.6 0.66,0.66 0 0 0 0,-0.56 2,2 0 0 0 -0.13,-0.24 1.51,1.51 0 0 0 -0.2,-0.26 l -0.47,-0.7 -1.63,1.13 0.33,0.47 a 3,3 0 0 0 0.27,0.3 0.5,0.5 0 0 0 0.27,0.1 0.68,0.68 0 0 0 0.26,0 1,1 0 0 0 0.33,-0.13 l 0.17,0.23 -1.6,1.1 -0.16,-0.23 A 1.33,1.33 0 0 0 21,101 a 1.11,1.11 0 0 0 0.17,-0.26 0.65,0.65 0 0 0 0,-0.34 1.73,1.73 0 0 0 -0.17,-0.33 l -0.33,-0.47 -1.4,1 a 0.28,0.28 0 0 0 -0.13,0.17 0.33,0.33 0 0 0 0,0.19 c 0,0 0,0.1 0.07,0.24 a 0.66,0.66 0 0 0 0.13,0.23 l -0.2,0.13 -1.23,-1.76 0.2,-0.13 0.17,0.23 a 0.88,0.88 0 0 0 0.17,0.17 0.24,0.24 0 0 0 0.2,0 0.37,0.37 0 0 0 0.19,-0.07 l 2.93,-2 c 0.07,0 0.1,-0.1 0.14,-0.13 a 0.46,0.46 0 0 0 0,-0.2 0.83,0.83 0 0 0 -0.07,-0.27 1.22,1.22 0 0 0 -0.1,-0.23 l 0.2,-0.13 2.2,3.19 -1,0.7 z m 2,8 -1.53,-1.63 0.17,-0.16 0.2,0.2 a 1,1 0 0 1 0.2,0.16 0.33,0.33 0 0 0 0.4,-0.06 L 27.12,105 a 0.61,0.61 0 0 0 0.13,-0.16 c 0,-0.07 0,-0.14 0,-0.24 a 1.18,1.18 0 0 0 -0.14,-0.23 2,2 0 0 1 -0.13,-0.23 l 0.17,-0.17 1.53,1.63 -0.17,0.17 a 1.18,1.18 0 0 0 -0.2,-0.17 c -0.07,-0.06 -0.17,-0.1 -0.23,-0.16 a 0.3,0.3 0 0 0 -0.24,0 l -0.19,0.1 L 25,108 c -0.07,0.06 -0.1,0.09 -0.1,0.16 0,0.07 0,0.13 0,0.23 0,0.1 0.06,0.14 0.13,0.24 a 1.53,1.53 0 0 0 0.17,0.23 l -0.14,0.13 z m 9.25,2 c -0.06,0 -0.13,-0.1 -0.23,-0.17 a 0.6,0.6 0 0 0 -0.3,-0.1 0.54,0.54 0 0 0 -0.33,0.14 3.47,3.47 0 0 0 -0.43,0.43 l -1.4,1.63 a 1.25,1.25 0 0 1 -0.6,0.43 2.18,2.18 0 0 1 -0.67,0.1 1.89,1.89 0 0 1 -0.63,-0.16 1.83,1.83 0 0 1 -0.5,-0.34 2.85,2.85 0 0 1 -0.53,-0.6 1.61,1.61 0 0 1 -0.23,-0.63 1,1 0 0 1 0,-0.56 1.63,1.63 0 0 1 0.27,-0.5 l 1.89,-2.23 a 0.31,0.31 0 0 0 0.1,-0.17 0.69,0.69 0 0 0 0,-0.23 0.76,0.76 0 0 0 -0.13,-0.2 c -0.07,-0.07 -0.1,-0.13 -0.14,-0.17 l 0.17,-0.2 1.56,1.33 L 32,109 c -0.07,0 -0.14,-0.1 -0.2,-0.13 a 0.49,0.49 0 0 0 -0.2,-0.1 0.23,0.23 0 0 0 -0.2,0 0.33,0.33 0 0 0 -0.17,0.13 l -1.78,2.1 a 2.29,2.29 0 0 0 -0.24,0.33 1.08,1.08 0 0 0 -0.13,0.43 1,1 0 0 0 0.07,0.47 1.32,1.32 0 0 0 0.39,0.5 1.8,1.8 0 0 0 0.57,0.33 1,1 0 0 0 0.53,0 1.15,1.15 0 0 0 0.4,-0.17 0.8,0.8 0 0 0 0.3,-0.27 l 1.33,-1.56 a 2.34,2.34 0 0 0 0.37,-0.53 1,1 0 0 0 0.1,-0.37 1.15,1.15 0 0 0 -0.17,-0.33 2.91,2.91 0 0 1 -0.2,-0.27 l 0.17,-0.2 1.53,1.33 v 0 l 1.13,0.8 0.1,4.63 1.33,-1.9 a 2.83,2.83 0 0 0 0.33,-0.57 0.41,0.41 0 0 0 0,-0.33 l -0.2,-0.3 a 0.7,0.7 0 0 0 -0.24,-0.23 l 0.14,-0.2 1.63,1.13 -0.14,0.2 -0.26,-0.13 a 1.22,1.22 0 0 0 -0.3,-0.07 0.61,0.61 0 0 0 -0.33,0.17 2.43,2.43 0 0 0 -0.4,0.46 l -2.07,2.93 -0.23,-0.17 -0.1,-5 -1.46,2.07 a 4.16,4.16 0 0 0 -0.34,0.56 0.89,0.89 0 0 0 -0.06,0.37 c 0,0.06 0.06,0.16 0.2,0.3 a 1.54,1.54 0 0 0 0.23,0.23 l -0.13,0.2 -1.63,-1.16 0.13,-0.2 a 2.7,2.7 0 0 1 0.3,0.13 0.57,0.57 0 0 0 0.3,0.07 0.59,0.59 0 0 0 0.3,-0.14 5,5 0 0 0 0.43,-0.53 l 1.4,-2 a 1,1 0 0 0 0.13,-0.3 0.78,0.78 0 0 0 0,-0.3 1.45,1.45 0 0 0 -0.17,-0.37 c -0.13,0 -0.2,-0.06 -0.27,-0.13 z m 11,6.52 a 1.59,1.59 0 0 1 -0.2,-0.07 c -0.1,0 -0.17,0 -0.23,0 a 0.5,0.5 0 0 0 -0.27,0.1 0.91,0.91 0 0 0 -0.23,0.17 l -1.4,1.23 c -0.63,0.57 -1.26,1.13 -1.93,1.76 l -0.27,-0.13 c 0.1,-1 0.2,-1.86 0.3,-2.73 0.1,-0.87 0.17,-1.46 0.17,-1.79 v -0.24 a 1,1 0 0 0 -0.1,-0.23 0.84,0.84 0 0 0 -0.13,-0.17 l -0.17,-0.13 0.1,-0.23 1.83,0.9 -0.1,0.23 a 1.29,1.29 0 0 0 -0.4,-0.13 c -0.13,0 -0.2,0 -0.23,0 -0.03,0 0,0.07 0,0.1 v 0.1 c 0,0.23 -0.07,0.63 -0.14,1.16 -0.07,0.53 -0.13,1.33 -0.23,2.33 0.33,-0.3 0.76,-0.66 1.23,-1.09 0.47,-0.43 0.77,-0.7 0.93,-0.87 a 2.05,2.05 0 0 0 0.3,-0.33 0.63,0.63 0 0 1 0.1,-0.17 0.17,0.17 0 0 0 0,-0.17 A 0.61,0.61 0 0 0 44,117 c -0.07,-0.07 -0.14,-0.1 -0.2,-0.17 -0.06,-0.07 -0.13,-0.1 -0.2,-0.13 l 0.1,-0.23 1.63,0.79 -0.1,0.27 z m 7.68,7.69 -1.29,-0.37 c -0.17,-0.53 -0.3,-1 -0.47,-1.4 -0.17,-0.4 -0.3,-0.8 -0.46,-1.23 l -0.5,-0.13 -0.44,1.53 a 0.63,0.63 0 0 0 0,0.23 0.17,0.17 0 0 0 0.13,0.17 0.61,0.61 0 0 0 0.2,0.1 l 0.27,0.1 -0.07,0.23 -2,-0.56 0.07,-0.24 c 0.07,0 0.13,0 0.23,0 a 0.75,0.75 0 0 0 0.24,0 0.35,0.35 0 0 0 0.3,-0.3 l 1,-3.49 a 0.51,0.51 0 0 0 0,-0.24 0.27,0.27 0 0 0 -0.14,-0.2 0.67,0.67 0 0 1 -0.2,-0.13 1.74,1.74 0 0 1 -0.23,-0.1 l 0.07,-0.23 2.23,0.63 a 2.85,2.85 0 0 1 0.56,0.23 1.79,1.79 0 0 1 0.43,0.34 1.06,1.06 0 0 1 0.24,0.46 1.13,1.13 0 0 1 0,0.57 1.32,1.32 0 0 1 -0.23,0.46 0.75,0.75 0 0 1 -0.36,0.3 1,1 0 0 1 -0.44,0.14 2.91,2.91 0 0 1 -0.53,0 c 0.13,0.4 0.27,0.7 0.37,1 0.1,0.3 0.2,0.57 0.36,1 a 1.39,1.39 0 0 0 0.2,0.36 2.81,2.81 0 0 0 0.2,0.24 c 0.07,0 0.13,0.1 0.2,0.13 a 0.52,0.52 0 0 1 0.2,0.1 l -0.07,0.27 z m -0.76,-4.1 a 0.94,0.94 0 0 0 -0.07,-0.76 1,1 0 0 0 -0.63,-0.47 l -0.57,-0.16 -0.59,2.06 0.43,0.13 a 1.11,1.11 0 0 0 0.86,-0.06 1.26,1.26 0 0 0 0.57,-0.74 z m 4.62,2.5 A 1.49,1.49 0 0 1 57,124 a 1.39,1.39 0 0 1 0,0.5 1.3,1.3 0 0 1 -0.67,1 1.64,1.64 0 0 1 -1.26,0.2 1.47,1.47 0 0 1 -0.63,-0.24 2,2 0 0 1 -0.5,-0.36 l -0.2,0.23 -0.27,-0.07 0.27,-1.66 0.27,0.07 c 0,0.23 0.06,0.4 0.1,0.59 a 3,3 0 0 0 0.2,0.54 1.06,1.06 0 0 0 0.36,0.4 1.22,1.22 0 0 0 0.53,0.23 1.07,1.07 0 0 0 0.77,-0.13 0.46,0.46 0 0 0 0.2,-0.24 0.88,0.88 0 0 0 0.13,-0.33 1.2,1.2 0 0 0 -0.06,-0.57 1,1 0 0 0 -0.44,-0.46 c -0.13,-0.1 -0.3,-0.2 -0.46,-0.3 a 4.81,4.81 0 0 1 -0.47,-0.3 1.3,1.3 0 0 1 -0.53,-0.6 1.4,1.4 0 0 1 -0.07,-0.83 1.19,1.19 0 0 1 0.2,-0.5 1.43,1.43 0 0 1 0.4,-0.37 1.62,1.62 0 0 1 0.53,-0.2 2,2 0 0 1 0.6,0 1.7,1.7 0 0 1 0.6,0.2 1.79,1.79 0 0 1 0.43,0.34 l 0.2,-0.2 0.27,0.06 -0.27,1.63 -0.26,-0.06 A 3.7,3.7 0 0 0 56.9,122 a 2.11,2.11 0 0 0 -0.17,-0.5 1.11,1.11 0 0 0 -0.3,-0.4 1.15,1.15 0 0 0 -0.49,-0.2 1,1 0 0 0 -0.6,0.1 0.71,0.71 0 0 0 -0.34,0.47 1.09,1.09 0 0 0 0,0.57 1.11,1.11 0 0 0 0.36,0.43 l 0.47,0.3 a 4.06,4.06 0 0 1 0.43,0.26 l 0.37,0.27 c 0,0.1 0.1,0.2 0.16,0.3 z m 7.92,-0.27 h -0.23 a 0.51,0.51 0 0 0 -0.1,-0.3 0.94,0.94 0 0 0 -0.17,-0.33 l -0.2,-0.3 a 0.51,0.51 0 0 0 -0.23,-0.17 c -0.07,0 -0.17,0 -0.27,0 -0.1,0 -0.19,0 -0.29,0 H 63 l -0.27,4 a 0.63,0.63 0 0 0 0,0.23 0.31,0.31 0 0 0 0.17,0.17 c 0,0 0.13,0 0.27,0.1 a 1.86,1.86 0 0 0 0.29,0.06 v 0.27 l -2.36,-0.17 v -0.26 h 0.3 c 0.14,0 0.23,0 0.27,0 a 0.29,0.29 0 0 0 0.16,-0.13 0.42,0.42 0 0 0 0.07,-0.23 l 0.3,-4 h -0.76 a 0.41,0.41 0 0 0 -0.27,0.14 1.63,1.63 0 0 0 -0.27,0.26 c -0.06,0.1 -0.13,0.2 -0.2,0.33 a 1.3,1.3 0 0 0 -0.13,0.3 h -0.23 l 0.1,-1.36 4.19,0.3 v 0 h 2.13 v 0.23 a 1.62,1.62 0 0 0 -0.5,0 c -0.1,0 -0.13,0.06 -0.13,0.09 a 0.11,0.11 0 0 0 0,0.07 c 0,0 0,0.07 0.07,0.13 l 0.1,0.2 a 2.44,2.44 0 0 0 0.1,0.24 6.35,6.35 0 0 0 0.33,0.63 c 0.1,0.2 0.26,0.46 0.43,0.8 0.37,-0.6 0.67,-1 0.87,-1.37 a 2.1,2.1 0 0 0 0.3,-0.6 0.19,0.19 0 0 0 -0.07,-0.13 0.26,0.26 0 0 0 -0.17,-0.06 0.4,0.4 0 0 0 -0.23,0 0.58,0.58 0 0 1 -0.23,0 V 122 h 1.73 v 0.23 a 0.48,0.48 0 0 0 -0.2,0 0.82,0.82 0 0 1 -0.2,0.06 c -0.1,0.07 -0.17,0.1 -0.2,0.13 a 1.68,1.68 0 0 0 -0.2,0.24 8.73,8.73 0 0 0 -0.53,0.76 c -0.17,0.27 -0.37,0.6 -0.6,1 a 1.08,1.08 0 0 0 -0.17,0.37 1.51,1.51 0 0 0 0,0.4 v 0.93 a 0.41,0.41 0 0 0 0,0.23 c 0,0.07 0.1,0.1 0.16,0.17 a 1.24,1.24 0 0 0 0.27,0.06 c 0.13,0 0.23,0 0.3,0.07 V 127 h -2.33 v -0.23 a 0.94,0.94 0 0 0 0.3,0 2.33,2.33 0 0 0 0.27,0 0.22,0.22 0 0 0 0.16,-0.13 0.45,0.45 0 0 0 0.07,-0.24 v -1.19 a 1.2,1.2 0 0 0 -0.06,-0.2 c 0,-0.1 -0.1,-0.2 -0.17,-0.34 -0.07,-0.14 -0.3,-0.56 -0.43,-0.89 -0.13,-0.33 -0.3,-0.6 -0.44,-0.84 a 1,1 0 0 0 -0.2,-0.3 0.9,0.9 0 0 0 -0.19,-0.16 l -0.2,-0.1 c 0,0 0,0 -0.07,0 l -0.07,1.09 z m 10.65,2.3 a 2.59,2.59 0 0 0 0.23,-0.73 3.38,3.38 0 0 0 0,-0.9 7.15,7.15 0 0 0 -0.16,-0.93 2.23,2.23 0 0 0 -0.37,-0.7 1.3,1.3 0 0 0 -0.53,-0.43 1.09,1.09 0 0 0 -0.67,-0.1 1.33,1.33 0 0 0 -0.7,0.26 1.24,1.24 0 0 0 -0.43,0.57 2.23,2.23 0 0 0 -0.2,0.73 4.12,4.12 0 0 0 0,0.86 5.16,5.16 0 0 0 0.17,0.9 2.16,2.16 0 0 0 0.33,0.7 1.13,1.13 0 0 0 0.53,0.43 1.16,1.16 0 0 0 0.7,0.1 1.26,1.26 0 0 0 1.1,-0.76 z"
         id="path1" />
      <path
         class="cls-2"
         d="m 17.07,48.28 a 5.93,5.93 0 0 0 -0.6,-2.5 0.74,0.74 0 0 1 -0.13,-0.3 l -0.2,-0.86 a 20.27,20.27 0 0 0 -0.87,-3 3.74,3.74 0 0 0 -1.36,-1.86 10.22,10.22 0 0 1 -1.4,-3.23 c 0,-0.3 0.47,-0.77 0.7,-0.87 a 5.57,5.57 0 0 1 2.49,1.44 7.47,7.47 0 0 0 0.87,0.33 13.25,13.25 0 0 1 2.76,-0.93 10.46,10.46 0 0 1 1.17,-0.3 c 1.06,-1.07 2.59,-3 3.19,-2.83 0.6,0.17 0.73,0.5 0.63,1.23 a 12,12 0 0 1 -1.4,2.7 0.86,0.86 0 0 1 -0.6,0.4 23.49,23.49 0 0 0 -2.56,0.89 l -0.26,0.1 -0.24,-0.06 -0.26,0.06 -0.2,0.2 h -0.5 c -1.3,0 -1.93,0.43 -1.76,1.49 v 0.7 c 0,0.2 0.2,0.34 0.33,0.54 l 0.2,0.39 v 0.34 l 0.23,0.36 0.17,0.64 -0.07,0.33 a 2.22,2.22 0 0 1 0.2,0.7 v 0.93 c 0.1,0.3 0.17,0.63 0.27,0.93 l 0.07,0.13 a 0.56,0.56 0 0 1 0.06,0.2 v 0.2 c 0,0.1 0.07,0.14 0.17,0.2 0.1,0.06 0.07,0.07 0.1,0.14 v 0.29 0.27 l -0.24,0.37 -0.2,0.23 -0.16,0.13 h -0.24 -0.16 c -0.1,0 -0.27,0.07 -0.3,-0.16 z m 2.33,-6.56 -0.3,0.2 -0.53,-0.2 -0.2,-0.43 L 18.3,41 18.23,40.8 18.3,40.67 V 40.4 l 0.07,-0.13 A 8.81,8.81 0 0 1 19,39.17 h 0.37 l 0.33,0.24 0.23,0.2 0.07,0.2 0.13,0.23 v 0.26 l 0.07,0.24 V 40.7 L 20.13,40.84 20,41 l -0.1,0.2 0.07,0.3 0.06,0.2 0.07,0.24 L 20,42 19.76,41.8 19.4,41.7 Z m 0.46,1.3 0.27,-0.07 0.76,-1 0.14,-0.26 v -0.34 l 0.07,-0.16 0.1,-0.2 0.36,-0.34 h 0.3 l 0.37,0.13 0.36,0.1 0.34,0.24 0.46,0.33 0.1,0.2 0.3,0.27 0.17,0.23 0.1,0.2 v 0.23 a 2.5,2.5 0 0 1 -0.63,0.87 l -0.1,-0.1 -0.13,0.33 0.13,0.2 V 44 l -0.1,0.2 -0.17,0.13 A 4.68,4.68 0 0 1 21,44.4 L 20.6,44.23 20.2,43.86 H 20.07 L 20,43.42 Z m 1.6,-0.33 v -0.17 l 0.07,-0.13 0.1,-0.14 0.1,-0.1 0.17,-0.06 0.3,0.13 0.13,0.13 v 0.2 l 0.07,0.2 v 0.14 l -0.1,0.16 -0.06,-0.1 -0.1,0.14 h -0.13 l -0.24,-0.1 -0.16,-0.1 -0.17,-0.23 z"
         id="path2" />
      <path
         class="cls-2"
         d="m 34.83,28.71 -0.26,-0.26 -0.27,-0.34 -0.26,-0.4 -0.27,-0.29 -0.43,-0.5 -0.2,-0.5 -0.2,-0.5 v -0.5 -0.17 L 32.87,25 32.97,24.73 32.87,24.5 32.94,24.36 32.81,24 V 23.7 L 32.65,23.4 32.48,23.1 32.38,22.87 32.18,22.53 31.91,22.17 31.65,21.8 31.48,21.64 31.55,21.5 31.22,21.14 30.98,20.74 30.85,20.41 30.68,20 a 8.4,8.4 0 0 1 0,-1.63 3.57,3.57 0 0 1 0.8,-0.63 V 17.4 c 0.3,-0.4 0.6,-0.69 0.9,-0.66 l 0.27,-0.07 0.33,0.17 0.3,0.4 0.13,0.36 v 0.2 0.34 l 0.3,0.46 0.29,0.4 0.13,0.26 v 0.17 l 0.3,0.43 0.3,0.44 v 0.23 l 1,1.2 v 0.3 l 0.27,0.46 0.3,0.3 0.4,0.17 a 1.25,1.25 0 0 1 0.63,0.46 c 0.37,0.5 0.43,1.37 0,1.27 L 37,24.52 l -0.36,-0.17 -0.47,-0.13 -0.2,-0.1 v -0.4 l -0.24,-0.36 -0.2,-0.27 -0.33,-0.23 h -0.33 l -0.3,0.06 -0.17,0.14 -0.1,0.26 v 0.4 l 0.1,0.47 v 0.33 l 0.17,0.37 0.46,0.46 v 0.24 l 0.07,0.36 0.07,0.27 v 0.16 l 0.33,0.4 V 27 l 0.1,0.13 -0.23,0.33 -0.07,0.14 -0.06,0.19 v 0.24 0.43 L 35.1,28.69 Z M 36,20.3 h -0.43 l -0.14,-0.06 -0.26,-0.2 -0.2,-0.37 a 3.31,3.31 0 0 1 0.26,-1.6 l 0.24,-0.66 0.33,-0.6 a 3.33,3.33 0 0 1 0.83,-0.7 l 0.53,-0.17 0.5,-0.2 c 0.6,-0.13 0.67,0.34 0.67,0.87 l 0.13,0.6 0.07,0.63 0.06,0.47 0.07,0.36 -0.2,0.57 v 0.46 l -0.13,0.5 -0.17,0.47 v 0.43 c 0.36,0.67 0.79,0.93 1.39,0.8 l 0.57,-0.4 0.76,-0.6 c 0.34,-0.23 0.6,-0.53 0.94,-0.8 l 0.49,-0.43 0.24,-0.23 a 0.42,0.42 0 0 0 -0.07,-0.4 L 42.41,18.67 42,18 41.83,17.87 h -0.2 l -0.1,-0.07 -0.23,-0.3 0.07,-0.3 h 0.23 l 0.37,0.2 0.16,0.1 0.27,0.23 0.23,0.1 0.27,0.2 0.3,0.13 0.33,0.1 a 0.7,0.7 0 0 1 0.73,0.87 v 0.26 l -0.3,0.5 -0.2,0.34 -0.23,0.39 -0.2,0.27 -0.5,0.43 -0.26,0.1 -0.27,0.14 -0.4,0.16 -0.2,0.24 h -0.26 l -0.3,0.1 -0.3,0.2 -0.27,0.2 -0.4,0.26 -0.33,0.2 -0.3,0.2 -0.27,0.17 H 38.91 L 38.57,23.22 38.28,23.09 38.04,22.95 37.78,22.69 37.44,22.35 37.3,22 37.13,21.76 36.86,21.53 36.7,21.3 36.6,21 v -0.36 l -0.2,-0.1 -0.2,-0.17 z m 0,-2.47 0.16,0.34 0.14,0.2 h 0.2 l 0.26,0.13 0.13,-0.06 0.2,0.06 0.27,-0.16 0.17,-0.1 0.06,-0.17 -0.13,-0.23 -0.17,-0.2 -0.16,-0.17 -0.27,-0.1 -0.23,0.07 -0.2,0.06 -0.23,0.07 -0.2,0.1 v 0.13 z m 0.3,1.6 0.3,-0.27 0.19,0.1 0.3,0.07 0.14,0.13 0.3,0.07 0.16,0.2 v 0.17 l -0.07,0.16 -0.07,0.1 L 37.35,20.1 37.2,20 37.06,20.06 36.86,20 36.76,19.9 H 36.6 l -0.13,-0.13 -0.2,-0.3 z m -2.6,2.06 h -0.2 v 0.13 l 0.06,0.2 0.17,0.1 0.13,-0.1 0.1,0.13 0.17,0.07 0.07,-0.02 0.2,-0.1 0.1,-0.16 0.07,-0.17 v -0.13 l -0.17,-0.17 -0.13,0.07 -0.2,-0.07 -0.17,0.1 -0.23,0.13 z M 32.44,19 l -0.27,0.14 -0.1,0.2 -0.06,0.23 v 0.27 l 0.13,0.2 v 0.16 l 0.3,0.24 0.2,0.16 0.33,0.07 0.16,-0.07 h 0.2 l 0.17,-0.26 0.07,-0.17 v -0.23 l -0.06,-0.2 -0.24,-0.27 -0.1,-0.13 -0.13,-0.17 -0.2,-0.1 h -0.16 z"
         id="path3" />
      <path
         class="cls-2"
         d="m 56,10.41 0.43,-0.3 0.27,-0.13 0.36,-0.23 0.27,-0.13 0.33,-0.1 0.37,-0.2 0.26,-0.14 0.44,-0.13 0.1,-0.13 a 9.87,9.87 0 0 1 2.53,-0.54 c 0.33,0 0.56,0.34 0.46,0.87 v 0.43 l -0.07,0.5 -0.17,0.17 -0.33,0.2 -0.13,0.2 -0.27,0.23 -0.1,0.3 -0.13,0.3 -0.07,0.3 -0.13,0.4 -0.27,0.36 -0.2,0.07 -0.16,0.2 -0.37,0.13 -0.2,0.17 -0.2,0.23 -0.06,0.2 -0.17,0.17 v 0.3 0.3 h 0.24 l 0.46,-0.1 0.43,-0.1 0.3,-0.13 0.3,-0.1 0.3,-0.23 0.2,-0.1 0.44,-0.14 0.29,-0.09 0.27,-0.1 0.2,-0.07 h 0.23 c 0.84,0 1.9,0 1.9,1.13 l -0.23,0.23 -0.2,0.1 -0.4,0.13 h -0.3 l -0.3,0.06 h -0.6 -0.23 l -0.4,-0.1 h -0.27 -0.63 -0.1 -0.27 l -0.43,0.1 H 59.73 L 59.53,14.84 59.46,15 59.09,15.1 H 59 l -0.47,0.1 -0.36,0.1 H 57.9 l -0.16,0.07 -0.07,0.17 h -0.33 l -0.17,0.1 -0.23,0.2 -0.3,0.1 A 0.93,0.93 0 0 1 56.07,16.7 L 55.81,16.84 55.57,16.9 55.3,17 H 55 L 54.66,16.93 H 54.43 L 54.2,16.86 54,16.74 l -0.17,-0.2 -0.07,-0.27 -0.06,-0.33 0.16,-0.3 0.17,-0.2 0.43,-0.17 0.27,-0.07 0.33,-0.09 0.2,-0.07 0.33,-0.07 0.27,-0.1 0.17,-0.06 0.43,-0.14 0.3,-0.06 0.2,-0.17 0.2,-0.17 0.13,-0.3 v -0.2 l 0.07,-0.23 0.1,-0.2 0.13,-0.2 0.14,-0.2 v -0.26 l 0.1,-0.14 0.06,-0.16 -0.2,-0.1 h -0.13 l -0.13,-0.06 h -0.17 -0.17 -0.3 -0.3 L 56.26,12 56.1,11.9 55.93,11.73 v -0.16 -0.24 l -0.06,-0.2 V 11 10.73 10.6 l 0.23,-0.17 z"
         id="path4" />
      <path
         class="cls-2"
         d="m 78.25,10.88 0.07,-0.2 0.13,-0.27 0.2,-0.13 0.17,-0.27 -0.17,-0.13 V 9.75 9.55 L 78.78,9.28 V 9.05 l 0.37,-0.3 a 1,1 0 0 1 0.8,0.07 l 0.33,-0.2 0.1,-0.63 V 7.52 c 0.47,-0.73 0.87,-1.07 1.23,-1 a 1.65,1.65 0 0 1 1.24,0.2 l 0.13,0.33 v 0.54 l 0.07,0.16 v 0.33 l 0.27,0.17 0.17,-0.17 0.4,-0.33 0.46,-0.4 a 1.22,1.22 0 0 1 1.23,-0.46 c 0.2,0.13 0.3,0.66 0.14,1.46 l 0.16,0.13 0.37,0.17 0.4,0.1 c 0.1,0.23 0.2,0.43 0.13,0.6 a 0.65,0.65 0 0 1 -0.83,0.43 l -1,-0.1 c -0.46,0.23 -0.49,0.53 -0.16,0.9 l 0.5,0.07 0.26,0.16 0.3,0.1 h 0.34 l 0.33,0.14 c 0.23,0.23 -0.13,1.06 -0.5,1.06 l -0.3,-0.07 h -0.2 l -1.4,-0.14 c -0.1,0.47 0.07,1 -0.43,1 -1,-0.06 -1.73,0.67 -1.3,1.53 a 1.38,1.38 0 0 1 -0.9,1.27 c -0.13,0.06 -0.2,0.23 -0.33,0.3 -0.13,0.07 -0.3,0.46 -0.4,0.53 -0.4,1.76 0.3,3 -1.13,2.73 A 0.63,0.63 0 0 1 79.2,19.02 L 78.63,18.43 78.52,18 78.25,17.9 77.79,17.73 C 77.66,17.67 77.56,17.47 77.46,17 l 0.2,-0.46 0.39,-0.3 c 0.47,0 0.87,0.06 0.94,0.36 l -0.14,0.07 -0.06,0.23 -0.07,0.43 0.27,0.24 0.4,0.23 0.29,0.07 0.17,-0.24 0.2,-0.26 c 0.13,-0.3 0,-0.5 0,-0.77 l -0.4,-0.06 -0.2,-0.17 c -0.16,-0.2 -0.16,-0.4 0,-0.53 l 0.5,-0.4 a 1.85,1.85 0 0 0 0.27,-1 l -0.17,-0.3 -0.07,-0.3 -0.2,-0.2 -0.2,-0.3 v -0.37 l 0.1,-0.3 0.23,-0.2 0.2,-0.23 0.3,-0.1 h 0.4 c 0.07,0.1 0.23,0.1 0.23,0.2 0.2,0.64 0.2,1 1,0.47 l 0.27,-0.07 0.57,-0.2 0.36,-0.23 0.37,-0.07 0.26,-0.1 v -0.2 l -0.26,-0.1 -0.24,-0.06 -0.2,0.06 -0.29,-0.1 -0.27,-0.1 h -0.33 l -0.2,-0.07 h -0.2 l -0.2,0.07 -1.27,-0.16 -1.33,-0.2 -0.33,0.16 -0.43,0.07 -0.2,0.06 c -0.07,0 -0.17,0.07 -0.24,0 l -0.23,-0.09 h -0.36 l -0.44,0.17 a 0.48,0.48 0 0 1 -0.23,0.1 l -0.3,-0.1 -0.17,0.06 c -1.83,0.37 -2.36,0.34 -2.06,-0.19 a 2,2 0 0 1 1.33,-0.5 1.73,1.73 0 0 1 0.93,0.06 h 0.34 0.76 0.4 l 0.23,-0.06 0.1,-0.17 z m 4.4,6.19 h -0.2 l -0.14,0.07 -0.1,0.13 h -0.13 l -0.3,-0.07 -0.17,-0.06 -0.13,0.06 -0.07,0.17 v 0.17 0.2 0.2 0.06 0.1 h -0.1 l 0.1,0.27 0.2,0.27 0.23,0.16 h 0.24 0.13 0.17 l 0.06,-0.07 0.14,-0.06 h 0.13 l 0.1,-0.2 0.17,-0.17 0.06,-0.1 L 83,18 v -0.2 l 0.06,-0.13 -0.09,-0.2 -0.14,-0.17 v -0.17 l -0.16,-0.06 z m -3.76,-6.29 0.2,-0.1 h 0.26 l 0.17,-0.07 h 0.46 l -0.06,0.4 h -0.6 -0.2 l -0.2,-0.07 v -0.2 z m 3.16,-0.7 v -0.2 l 0.07,-0.2 0.13,-0.3 0.17,-0.16 0.2,-0.1 h 0.23 l 0.2,0.07 0.1,0.16 -0.15,0.2 -0.06,0.2 h -0.13 l -0.07,0.13 -0.07,0.2 -0.2,0.17 h -0.2 l -0.26,-0.2 z"
         id="path5" />
      <path
         class="cls-2"
         d="m 98,18.27 1,0.36 h 0.43 l 0.26,0.19 0.5,-0.06 0.5,-0.07 0.4,-0.4 a 7.41,7.41 0 0 1 1.7,-1.06 c 0.46,-0.2 0.8,-0.24 0.93,0.4 a 3.1,3.1 0 0 1 -0.6,1.89 0.49,0.49 0 0 0 0.27,0.47 c 0.26,0.2 0.53,0.33 0.46,0.66 -0.07,0.33 -0.46,0.84 -1.56,0.8 l -0.67,-0.13 a 0.49,0.49 0 0 0 -0.56,0 c -0.27,0.17 -0.3,0.4 -0.37,0.67 a 26.78,26.78 0 0 0 1.07,4.19 4.16,4.16 0 0 0 0.5,0.83 0.93,0.93 0 0 0 0.3,0.2 c 0.26,0.13 0.43,0.23 0.46,0.46 a 0.37,0.37 0 0 1 -0.33,0.44 1.1,1.1 0 0 1 -0.47,-0.07 c -0.43,-0.2 -0.86,-0.43 -1.33,-0.7 l -0.26,-0.3 -0.34,-0.56 -0.1,-0.34 -0.26,-1 v -0.6 l -0.1,-0.43 v -0.33 -0.34 -0.6 L 99.7,22.44 99.53,22.15 98.92,22 l -0.17,0.24 -0.23,0.09 -1.87,0.7 -0.66,0.27 -0.53,0.17 h -0.67 l -0.27,-0.1 -0.46,-0.44 -0.1,-0.63 c 0.3,-0.4 0.3,-0.43 0.7,-0.16 h 0.23 l 0.27,0.1 0.26,-0.1 0.23,0.1 0.27,-0.06 0.13,-0.1 h 0.2 0.34 0.23 l 0.27,-0.17 0.33,-0.1 0.26,-0.1 c 0.37,-0.23 0.5,-0.53 0.17,-0.87 l -0.7,-0.43 -0.26,-0.41 0.06,-0.3 0.07,-0.4 0.07,-0.3 0.23,-0.33 0.16,-0.14 0.54,-0.26 z"
         id="path6" />
      <path
         class="cls-2"
         d="m 117.41,36.8 c 0.14,-0.17 0.14,-0.3 0.54,-0.43 l 0.76,-0.57 h 0.2 0.17 l 0.33,-0.2 h 0.27 0.2 0.2 l 0.13,0.14 0.3,-0.1 0.16,0.23 0.14,0.13 0.06,0.27 v 0.27 l -0.13,0.36 -0.2,0.13 -0.27,0.1 -0.23,0.24 -0.07,0.26 c 0.27,0.34 0.5,0.34 0.73,0 h 0.24 0.2 l 0.23,-0.06 h 0.3 l 0.13,0.13 0.4,0.37 0.1,0.36 v 0.3 0.24 0.2 l 0.16,0.2 0.23,0.06 c 0.37,0.34 1.3,0.07 1.77,0 0.73,0.13 0.76,0.76 0.23,1.29 l -0.27,0.07 -0.1,0.13 -0.19,0.24 -0.07,0.33 -0.63,0.37 c -0.84,0.09 -0.7,-0.34 -1.63,-0.5 l -0.44,0.2 v 0.23 L 121,42 l -0.2,0.27 -0.17,0.23 v 0.33 l 0.24,0.37 -0.07,0.4 V 44 c -0.66,0.83 -1.36,1.13 -2.16,0.23 v -0.27 l -0.23,-0.29 -0.17,-0.27 -0.2,-0.17 -0.13,-0.4 c 0.1,-0.8 0.76,0 0.83,0.14 l 0.3,0.16 0.23,-0.23 v -0.33 a 1.92,1.92 0 0 0 -1.6,-1.8 l -0.46,0.3 -0.3,0.47 -0.6,0.4 -0.3,0.29 -0.1,0.4 -0.07,0.37 v 0.2 l 0.1,0.2 -0.13,0.46 v 0.3 l 0.1,0.4 a 1.12,1.12 0 0 1 -0.67,0.84 c -0.66,0.33 -0.73,0 -1,-0.34 a 2.25,2.25 0 0 0 -1.47,-0.5 4.14,4.14 0 0 1 -1.16,-0.56 l -0.37,-0.5 c -0.16,-0.3 -0.46,-0.57 -0.5,-1 a 1.14,1.14 0 0 1 0.3,-0.73 c 0.4,-0.56 0.73,-0.66 0.9,0.23 a 0.82,0.82 0 0 0 0.23,0.77 l 0.14,0.3 c 0.43,0.33 0.8,0.43 1,0 a 2.38,2.38 0 0 0 -0.63,-1.86 c -0.23,-0.2 -0.33,-0.34 -0.17,-0.47 0.16,-0.13 0.5,-0.13 0.8,0.2 l 0.4,0.5 a 0.61,0.61 0 0 0 0.8,0 l 0.73,-0.47 h 0.33 l 0.27,-0.14 v -0.16 l -0.06,-0.3 V 40.1 l 0.17,-0.23 0.23,0.07 c 0.27,0 0.33,-0.2 0.27,-0.4 l -0.4,-0.3 h -0.27 l -0.27,-0.13 -0.2,-0.3 -0.2,-0.1 -0.33,-0.2 -0.2,-0.1 -0.3,-0.2 -0.33,-0.1 -0.13,-0.2 h -0.3 l -0.17,-0.23 c -0.33,0 -0.36,0 -0.56,-0.24 -0.4,-0.43 -0.77,-0.89 -0.7,-1.13 -0.14,-0.3 0.16,-0.43 0.9,-0.33 0.39,0 0.56,0.5 0.79,0.8 l 0.3,0.26 0.17,0.27 0.27,0.1 0.26,0.2 0.3,0.2 0.33,0.13 0.24,0.27 0.33,0.13 0.4,-0.2 0.3,-0.16 0.23,-0.24 0.23,-0.3 0.17,-0.2 v -0.36 z m 1.4,2 -0.3,-0.5 -0.2,0.06 h -0.4 l -0.16,0.27 0.06,0.13 -0.06,0.14 v 0.2 l -0.1,0.06 0.07,0.1 v 0.14 l 0.16,0.23 0.1,0.1 0.2,-0.1 0.17,-0.1 0.1,-0.13 0.1,0.06 h 0.1 l 0.13,-0.13 v -0.14 l 0.14,-0.13 v -0.17 -0.06 z m 1.07,0.4 h 0.1 0.16 0.24 l 0.13,0.07 0.13,0.13 0.07,0.17 v 0.16 0.17 l -0.13,0.2 v 0.07 l -0.17,0.13 -0.1,0.1 H 120 l -0.1,-0.07 -0.1,-0.23 -0.17,-0.13 -0.06,-0.07 v -0.1 -0.17 -0.2 l 0.06,-0.1 0.14,-0.06 z"
         id="path7" />
      <path
         class="cls-3"
         d="m 67.71,19.16 a 48.58,48.58 0 0 1 47.71,39.56 H 115 a 48.1,48.1 0 0 0 -94.49,0 H 20 A 48.57,48.57 0 0 1 67.71,19.16 Z m 45.21,66.21 a 48.54,48.54 0 0 1 -90.43,0 H 23 a 48.13,48.13 0 0 0 89.5,0 z"
         id="path8" />
      <path
         class="cls-3"
         d="m 111.86,60.82 h -2.36 v 1.63 h 2.36 z m -2.86,2.4 h 24.48 v 16.5 H 109 v 3.49 h 22.62 v 0.5 H 4.26 v -0.5 H 26.38 V 79.72 H 1.9 V 63.22 H 26.38 V 59.36 H 3 v -1.1 h 23.38 l -0.06,-6 h -0.73 v -1.42 h 24.75 v -1.57 h 8 v 1.57 h 18.72 v -1.57 h 8 v 1.57 H 109.8 V 52.3 H 109 v 6 h 23.69 v 1.1 H 109 v 3.86 z M 23.42,76.76 h 2.37 v 1.63 h -2.37 z m -4.12,0 h 2.36 v 1.63 H 19.3 Z m -4.1,0 h 2.37 v 1.63 H 15.2 Z m -4.12,0 h 2.36 v 1.63 h -2.36 z m -4.08,0 h 2.32 v 1.63 H 7 Z m -4.12,0 h 2.31 v 1.63 H 2.83 v -1.63 z m 20.59,-4 h 2.37 v 1.63 h -2.42 v -1.63 z m -4.12,0 h 2.36 v 1.63 H 19.3 v -1.63 z m -4.1,0 h 2.37 v 1.63 H 15.2 v -1.63 z m -4.12,0 h 2.36 v 1.63 h -2.41 v -1.63 z m -4.13,0 h 2.32 v 1.63 H 7 Z m -4.12,0 h 2.31 v 1.63 H 2.83 v -1.63 z m 20.59,-4 h 2.37 v 1.64 h -2.42 v -1.63 z m -4.12,0 h 2.36 V 70.4 H 19.3 v -1.63 z m -4.1,0 h 2.37 V 70.4 H 15.2 v -1.63 z m -4.12,0 h 2.36 V 70.4 H 11.08 V 68.77 Z M 7,68.77 H 9.32 V 70.4 H 7 Z m -4.12,0 H 5.19 V 70.4 H 2.83 v -1.63 z m 20.59,-4 h 2.37 v 1.63 h -2.42 v -1.62 z m -4.12,0 h 2.36 V 66.4 H 19.3 v -1.62 z m -4.1,0 h 2.37 V 66.4 H 15.2 v -1.62 z m -4.12,0 h 2.36 V 66.4 H 11.08 V 64.78 Z M 7,64.78 h 2.32 v 1.63 H 7 Z m -4.12,0 h 2.31 v 1.63 H 2.83 v -1.63 z m 24,-8.45 h 24.06 v -4 H 26.85 v 4 z m 24.56,0 h 5.79 v -4 h -5.79 z m 6.32,0 h 19.9 v -4 h -19.9 z m 20.39,0 h 5.79 v -4 h -5.79 z m 6.33,0 h 24 v -4 h -24 z m 24,18.8 h -24 v 8.11 h 24 z m -24.56,0 h -5.77 v 8.11 h 5.79 v -8.11 z m -6.62,0 h -5.87 v 8.11 h 0.77 v -3.06 h 4.16 v 3.06 h 0.93 v -8.11 z m -6.69,0 h -5.86 v 8.11 h 0.89 v -3.06 h 4.16 v 3.06 h 0.8 v -8.11 z m -6.68,0 h -5.87 v 8.11 h 1 v -3.06 h 4.16 v 3.06 h 0.66 v -8.11 z m -6.72,0 h -5.77 v 8.11 h 5.79 v -8.11 z m -6.29,0 H 26.88 v 8.11 h 24.06 v -8.11 z m 36.33,1.26 h -2.34 v 2 h 2.36 v -2 z m -83,9.55 v -0.83 h 127.37 v 0.83 z m 19.16,-5.19 h 2.37 v 1.63 h -2.36 v -1.63 z m -4.12,0 h 2.36 v 1.63 H 19.3 v -1.63 z m -4.1,0 h 2.37 v 1.63 H 15.2 v -1.63 z m -4.12,0 h 2.36 v 1.63 h -2.35 v -1.63 z m -4.07,0 h 2.32 v 1.63 H 7 Z m -4.12,0 h 2.31 v 1.63 H 2.83 V 80.75 Z M 82.3,80.18 h -2.42 v 2 h 2.37 v -2 z m -26.72,0 h -2.41 v 2 h 2.36 v -2 z m -5,0 h -2.4 v 2 h 2.36 v -2 z m -4.13,0 h -2.4 v 2 h 2.36 v -2 z m -4.12,0 h -2.4 v 2 h 2.36 v -2 z m -4.09,0 h -2.41 v 2 h 2.37 v -2 z m -4.13,0 h -2.4 v 2 h 2.36 v -2 z m -4.13,0 h -2.4 v 2 h 2.36 v -2 z m 57.33,0 h -2.4 v 2 h 2.36 v -2 z m 4.13,0 H 89 v 2 h 2.4 v -2 z m 4.12,0 h -2.4 v 2 h 2.36 v -2 z m 4.13,0 h -2.4 v 2 h 2.36 v -2 z m 4.12,0 h -2.36 v 2 h 2.36 z m 4.13,0 h -2.36 v 2 h 2.36 z m 4,0.57 h -2.44 v 1.63 h 2.36 v -1.63 z m 4.12,0 h -2.36 v 1.63 h 2.3 v -1.63 z m 4.13,0 h -2.36 v 1.63 h 2.36 z m 4.09,0 h -2.36 v 1.63 h 2.36 z m 4.13,0 H 126 v 1.63 h 2.37 v -1.63 z m 4.12,0 h -2.36 v 1.63 h 2.36 z M 29.94,76.39 h -2.36 v 2 h 2.36 z m 4.13,0 h -2.36 v 2 h 2.36 z m 4.13,0 h -2.37 v 2 h 2.37 z m 4.09,0 h -2.36 v 2 h 2.36 z m 4.12,0 h -2.36 v 2 h 2.36 z m 4.13,0 h -2.36 v 2 h 2.36 z m 5,0 h -2.37 v 2 h 2.36 v -2 z m 3.56,0 h 4.16 v 1.9 h -4.17 v -1.9 z m 6.55,0 h 4.15 v 1.9 h -4.16 v -1.9 z m 6.59,0 h 4.16 v 1.9 h -4.17 v -1.9 z m 19.17,0 H 89 v 2 h 2.4 v -2 z m 4.12,0 h -2.37 v 2 h 2.36 v -2 z m 4.13,0 h -2.37 v 2 h 2.36 v -2 z m 4.12,0 h -2.36 v 2 h 2.36 z m 4.13,0 h -2.36 v 2 h 2.36 z m -25.65,0 h -2.38 v 2 h 2.37 v -2 z M 23.42,60.82 h 2.37 v 1.63 h -2.37 z m -4.12,0 h 2.36 v 1.63 H 19.3 Z m -4.1,0 h 2.37 v 1.63 H 15.2 Z m -4.12,0 h 2.36 v 1.63 h -2.36 z m -4.08,0 h 2.32 v 1.63 H 7 Z m -4.12,0 h 2.31 v 1.63 H 2.83 v -1.63 z m 81.71,-10 v -1.01 h -7 v 1.06 z m -26.71,0 v -1.01 h -7 v 1.06 z m 24.42,2.76 h -2.42 v 1.63 h 2.37 v -1.58 z m 5.09,0 H 85 v 1.63 h 2.37 v -1.58 z m 4.09,0 h -2.41 v 1.63 h 2.36 v -1.58 z m 4.09,0 h -2.41 v 1.63 h 2.36 v -1.58 z m 4.09,0 h -2.41 v 1.63 h 2.36 v -1.58 z m 4.1,0 h -2.37 v 1.63 h 2.37 v -1.58 z m 4.12,0 h -2.36 v 1.63 h 2.36 v -1.58 z m -35.6,0 h 4.16 v 1.63 h -4.21 v -1.58 z m -6.59,0 h 4.11 v 1.63 h -4.16 v -1.58 z m -6.55,0 h 4.16 v 1.63 h -4.21 v -1.58 z m -5.92,0 h 2.36 v 1.63 h -2.41 v -1.58 z m -5.09,0 h 2.36 v 1.63 h -2.41 v -1.58 z m -4.1,0 h 2.37 v 1.63 H 44 v -1.58 z m -4.09,0 h 2.36 v 1.63 h -2.41 v -1.58 z m -4.12,0 h 2.36 v 1.63 h -2.41 v -1.58 z m -4.1,0 H 34 v 1.63 h -2.33 v -1.58 z m -4.09,0 h 2.36 v 1.63 H 27.58 V 53.63 Z M 116,60.82 h -2.36 v 1.63 H 116 Z m 4.13,0 h -2.36 v 1.63 h 2.36 z m 4.09,0 h -2.36 v 1.63 h 2.36 z m 4.13,0 H 126 v 1.63 h 2.37 v -1.63 z m 4.12,0 h -2.36 v 1.63 h 2.36 z M 27.58,71.57 h 2.36 v 1.63 h -2.36 z m 4.09,0 H 34 v 1.63 h -2.33 z m 4.1,0 h 2.36 v 1.63 h -2.36 z m 4.12,0 h 2.36 v 1.63 h -2.36 z m 4.09,0 h 2.37 V 73.2 H 44 v -1.63 z m 4.1,0 h 2.36 v 1.63 h -2.36 z m 5.09,0 h 2.36 v 1.63 h -2.36 z m 5.92,0 h 4.16 v 1.63 h -4.16 z m 6.55,0 h 4.16 v 1.63 h -4.16 z m 6.59,0 h 4.16 v 1.63 h -4.16 z m 35.6,0 h -2.36 v 1.63 h 2.36 z m -4.12,0 h -2.37 v 1.63 h 2.37 z m -4.1,0 h -2.36 v 1.63 h 2.36 z m -4.09,0 h -2.36 v 1.63 h 2.36 z m -4.09,0 h -2.36 v 1.63 h 2.36 z m -4.09,0 H 85 v 1.63 h 2.37 v -1.63 z m -5.09,0 h -2.37 v 1.63 h 2.37 z m 0,-4.43 h -2.37 v 1.63 h 2.37 z m 5.09,0 H 85 v 1.63 h 2.37 v -1.63 z m 4.09,0 h -2.36 v 1.63 h 2.36 z m 4.09,0 h -2.36 v 1.63 h 2.36 z m 4.09,0 h -2.36 v 1.63 h 2.36 z m 4.1,0 h -2.37 v 1.63 h 2.37 z m 4.12,0 h -2.36 v 1.63 h 2.36 z m -35.6,0 h 4.16 v 1.63 h -4.16 z m -6.59,0 h 4.16 v 1.63 h -4.16 z m -6.55,0 h 4.16 v 1.63 h -4.16 z m -5.92,0 h 2.36 v 1.63 h -2.36 z m -5.09,0 h 2.36 v 1.63 h -2.36 z m -4.1,0 h 2.37 v 1.63 H 44 v -1.63 z m -4.09,0 h 2.36 v 1.63 h -2.36 z m -4.12,0 h 2.36 v 1.63 h -2.36 z m -4.1,0 H 34 v 1.63 h -2.33 z m -4.09,0 h 2.36 v 1.63 h -2.36 z m 0,-4.39 h 2.36 v 1.63 h -2.36 z m 4.09,0 H 34 v 1.63 h -2.33 z m 4.1,0 h 2.36 v 1.63 h -2.36 z m 4.12,0 h 2.36 v 1.63 h -2.36 z m 4.09,0 h 2.37 v 1.63 H 44 v -1.63 z m 4.1,0 h 2.36 v 1.63 h -2.36 z m 5.09,0 h 2.36 v 1.63 h -2.36 z m 5.92,0 h 4.16 v 1.63 h -4.16 z m 6.55,0 h 4.16 v 1.63 h -4.16 z m 6.59,0 h 4.16 v 1.63 h -4.16 z m 35.6,0 h -2.36 v 1.63 h 2.36 z m -4.12,0 h -2.37 v 1.63 h 2.37 z m -4.1,0 h -2.36 v 1.63 h 2.36 z m -4.09,0 h -2.36 v 1.63 h 2.36 z m -4.09,0 h -2.36 v 1.63 h 2.36 z m -4.09,0 H 85 v 1.63 h 2.37 v -1.63 z m -5.09,0 h -2.37 v 1.63 h 2.37 z M 27.58,58.36 h 2.36 V 60 h -2.36 z m 4.09,0 H 34 V 60 h -2.33 z m 4.1,0 h 2.36 V 60 h -2.36 z m 4.12,0 h 2.36 V 60 h -2.36 z m 4.09,0 h 2.37 V 60 H 44 v -1.64 z m 4.1,0 h 2.36 V 60 h -2.36 z m 5.09,0 h 2.36 V 60 h -2.36 z m 5.92,0 h 4.16 V 60 h -4.16 z m 6.55,0 H 69.8 V 60 h -4.16 z m 6.59,0 h 4.16 V 60 h -4.16 z m 35.6,0 h -2.36 V 60 h 2.36 z m -4.12,0 h -2.37 V 60 h 2.37 z m -4.1,0 H 97.25 V 60 h 2.36 z m -4.09,0 H 93.16 V 60 h 2.36 z m -4.09,0 H 89.07 V 60 h 2.36 z m -4.09,0 H 85 V 60 h 2.37 v -1.64 z m -5.09,0 H 79.88 V 60 h 2.37 z m 29.61,18.4 h -2.36 v 1.63 h 2.36 z m 4.12,0 h -2.36 v 1.63 H 116 v -1.63 z m 4.13,0 h -2.36 v 1.63 h 2.36 z m 4.09,0 h -2.36 v 1.63 h 2.36 z m 4.13,0 H 126 v 1.63 h 2.37 v -1.63 z m 4.12,0 h -2.36 v 1.63 h 2.36 z m -20.59,-4 h -2.36 v 1.63 h 2.36 z m 4.12,0 h -2.36 v 1.63 H 116 v -1.63 z m 4.13,0 h -2.36 v 1.63 h 2.36 z m 4.09,0 h -2.36 v 1.63 h 2.36 z m 4.13,0 H 126 v 1.63 h 2.37 v -1.63 z m 4.12,0 h -2.36 v 1.63 h 2.36 z m -20.59,-4 h -2.36 v 1.64 h 2.36 v -1.63 z m 4.12,0 h -2.36 V 70.4 H 116 v -1.63 z m 4.13,0 h -2.36 v 1.64 h 2.36 v -1.63 z m 4.09,0 h -2.36 v 1.64 h 2.36 v -1.63 z m 4.13,0 H 126 v 1.64 h 2.37 v -1.63 z m 4.12,0 h -2.36 v 1.64 h 2.36 v -1.63 z m -20.59,-4 h -2.36 v 1.63 h 2.36 v -1.61 z m 4.12,0 h -2.36 v 1.63 H 116 v -1.61 z m 4.13,0 h -2.36 v 1.63 h 2.36 v -1.61 z m 4.09,0 h -2.36 v 1.63 h 2.36 v -1.61 z m 4.13,0 H 126 v 1.63 h 2.37 v -1.61 z m 4.12,0 h -2.36 v 1.63 h 2.36 v -1.61 z"
         id="path9" />
      <path
         class="cls-3"
         d="M 67.71,0 A 67.71,67.71 0 1 1 0,67.71 67.7,67.7 0 0 1 67.71,0 Z m 0,3 A 64.68,64.68 0 1 1 3,67.71 64.69,64.69 0 0 1 67.71,3 Z"
         id="path10" />
      <path
         class="cls-4"
         d="m 58.26,93.73 h -4.89 v -0.5 h 4.89 z m 2.56,2.56 h -1 V 92 h -1.3 v -0.37 a 2.45,2.45 0 0 0 1.2,-0.23 1,1 0 0 0 0.57,-0.67 h 0.5 v 5.53 z m 5.12,-2.8 a 3.23,3.23 0 0 1 -0.63,2.1 2.09,2.09 0 0 1 -1.8,0.76 1.83,1.83 0 0 1 -1.29,-0.43 1.3,1.3 0 0 1 -0.5,-1 h 1 a 0.78,0.78 0 0 0 0.23,0.57 0.88,0.88 0 0 0 0.63,0.26 1,1 0 0 0 1,-0.53 3.78,3.78 0 0 0 0.4,-1.59 1.48,1.48 0 0 1 -0.6,0.53 1.92,1.92 0 0 1 -0.87,0.2 1.94,1.94 0 0 1 -1.33,-0.44 1.62,1.62 0 0 1 -0.5,-1.26 1.78,1.78 0 0 1 0.5,-1.33 2.13,2.13 0 0 1 1.53,-0.5 2.09,2.09 0 0 1 1.63,0.63 2.63,2.63 0 0 1 0.63,2 z m -1.06,-0.73 a 1.45,1.45 0 0 0 -0.33,-1.06 1.09,1.09 0 0 0 -0.87,-0.37 1.06,1.06 0 0 0 -0.7,0.27 1.3,1.3 0 0 0 -0.3,1 1.24,1.24 0 0 0 0.24,0.84 0.9,0.9 0 0 0 0.76,0.3 1.19,1.19 0 0 0 0.87,-0.3 0.72,0.72 0 0 0 0.33,-0.67 z m 6.35,2.13 h -0.89 v 1.4 h -1 v -1.4 h -2.86 v -0.6 l 2.86,-3.49 h 1 v 3.49 h 0.89 z m -1.89,-0.6 v -2.36 l -1.93,2.36 z m 6.68,0 a 1.81,1.81 0 0 1 -0.63,1.5 2.35,2.35 0 0 1 -1.66,0.53 2.23,2.23 0 0 1 -1.46,-0.43 1.57,1.57 0 0 1 -0.64,-1.2 h 1 a 1,1 0 0 0 0.3,0.77 1.19,1.19 0 0 0 0.87,0.3 1.11,1.11 0 0 0 0.86,-0.37 1.66,1.66 0 0 0 0.33,-1.1 1.45,1.45 0 0 0 -0.26,-0.93 1,1 0 0 0 -0.77,-0.3 1.39,1.39 0 0 0 -0.66,0.14 1.65,1.65 0 0 0 -0.54,0.43 H 71.9 l 0.27,-2.8 h 3.69 v 0.6 H 73 l -0.17,1.47 a 1.65,1.65 0 0 1 0.57,-0.3 2.45,2.45 0 0 1 0.79,-0.1 2,2 0 0 1 1.34,0.46 1.81,1.81 0 0 1 0.47,1.36 z m 6,-0.59 H 77.09 V 93.2 H 82 v 0.5 z"
         id="path11" />
      <path
         class="cls-1"
         d="m 170.28,114.05 h -6.15 v -0.73 c 0.16,0 0.4,0 0.73,-0.06 a 2.06,2.06 0 0 0 0.66,-0.14 0.86,0.86 0 0 0 0.47,-0.36 1.34,1.34 0 0 0 0.13,-0.67 v -5.29 h -7 v 5.2 a 1.27,1.27 0 0 0 0.13,0.63 1,1 0 0 0 0.47,0.43 2.32,2.32 0 0 0 0.63,0.2 3.22,3.22 0 0 0 0.73,0.1 v 0.73 h -6.16 v -0.73 c 0.17,0 0.4,0 0.74,-0.06 a 2.06,2.06 0 0 0 0.66,-0.14 0.86,0.86 0 0 0 0.47,-0.36 1.34,1.34 0 0 0 0.13,-0.67 v -10.75 a 1.11,1.11 0 0 0 -0.13,-0.6 1,1 0 0 0 -0.47,-0.43 3.57,3.57 0 0 0 -0.7,-0.24 c -0.26,-0.06 -0.5,-0.1 -0.7,-0.13 v -0.73 h 6.16 V 100 a 3.22,3.22 0 0 0 -0.73,0.1 3.8,3.8 0 0 0 -0.63,0.17 0.75,0.75 0 0 0 -0.47,0.43 1.86,1.86 0 0 0 -0.13,0.63 v 4.59 h 7 v -4.49 a 1.16,1.16 0 0 0 -0.13,-0.6 1,1 0 0 0 -0.47,-0.43 3.1,3.1 0 0 0 -0.69,-0.23 c -0.27,-0.07 -0.5,-0.1 -0.7,-0.14 V 99.3 h 6.15 v 0.7 a 3.91,3.91 0 0 0 -0.73,0.1 3.8,3.8 0 0 0 -0.63,0.17 0.78,0.78 0 0 0 -0.47,0.43 2.14,2.14 0 0 0 -0.13,0.63 v 10.72 a 1.27,1.27 0 0 0 0.13,0.63 1,1 0 0 0 0.47,0.43 2.32,2.32 0 0 0 0.63,0.2 3.22,3.22 0 0 0 0.73,0.1 v 0.63 z m 14.57,-4.39 -0.26,4.36 h -12.31 v -0.73 a 4.26,4.26 0 0 0 0.83,-0.1 2.77,2.77 0 0 0 0.67,-0.13 1,1 0 0 0 0.46,-0.4 1.22,1.22 0 0 0 0.13,-0.64 v -10.68 a 1.49,1.49 0 0 0 -0.1,-0.59 0.83,0.83 0 0 0 -0.46,-0.44 3.1,3.1 0 0 0 -0.77,-0.23 c -0.33,-0.07 -0.56,-0.1 -0.76,-0.13 v -0.74 h 11.48 v 3.6 H 183 a 4.62,4.62 0 0 0 -0.9,-1.7 2.07,2.07 0 0 0 -1.33,-1 c -0.23,0 -0.47,0 -0.77,-0.07 -0.3,-0.07 -0.63,0 -1,0 h -2.4 v 5.89 h 1.67 a 3.14,3.14 0 0 0 1.16,-0.17 1.93,1.93 0 0 0 0.67,-0.5 2.39,2.39 0 0 0 0.4,-0.8 6.1,6.1 0 0 0 0.2,-1 h 0.79 v 5.79 h -0.79 a 4.42,4.42 0 0 0 -0.24,-1.07 5,5 0 0 0 -0.36,-0.8 1.47,1.47 0 0 0 -0.73,-0.53 4.41,4.41 0 0 0 -1.1,-0.13 h -1.67 v 4.46 a 5,5 0 0 0 0.1,1.06 1.07,1.07 0 0 0 0.37,0.6 1.57,1.57 0 0 0 0.73,0.27 c 0.3,0 0.77,0.06 1.33,0.06 h 0.9 a 9.44,9.44 0 0 0 1,0 4,4 0 0 0 0.83,-0.17 1.21,1.21 0 0 0 0.6,-0.3 5.46,5.46 0 0 0 1,-1.53 9,9 0 0 0 0.67,-1.49 h 0.76 z m 13,-6.75 h -0.79 a 5.81,5.81 0 0 0 -0.9,-1.77 2.28,2.28 0 0 0 -1.33,-1 c -0.2,0 -0.47,0 -0.77,-0.06 -0.3,-0.06 -0.63,0 -1,0 h -2.49 v 6 h 1.69 a 3.47,3.47 0 0 0 1.2,-0.17 1.55,1.55 0 0 0 0.73,-0.5 2,2 0 0 0 0.37,-0.73 4.83,4.83 0 0 0 0.23,-1 h 0.8 v 5.82 h -0.8 a 6.61,6.61 0 0 0 -0.2,-1 2.55,2.55 0 0 0 -0.4,-0.83 1.45,1.45 0 0 0 -0.79,-0.53 4,4 0 0 0 -1.14,-0.14 h -1.69 v 5 a 1.35,1.35 0 0 0 0.13,0.63 1.16,1.16 0 0 0 0.47,0.43 5.12,5.12 0 0 0 0.66,0.17 4.37,4.37 0 0 0 0.8,0.1 V 114 h -6.42 v -0.73 a 7.88,7.88 0 0 0 0.83,-0.07 1.59,1.59 0 0 0 0.67,-0.13 1.07,1.07 0 0 0 0.46,-0.4 1.27,1.27 0 0 0 0.14,-0.63 v -10.7 a 1.69,1.69 0 0 0 -0.1,-0.59 0.89,0.89 0 0 0 -0.47,-0.44 3.1,3.1 0 0 0 -0.77,-0.23 c -0.33,-0.07 -0.56,-0.1 -0.76,-0.13 v -0.74 h 11.64 z m 13.81,6.75 -0.26,4.36 h -12.31 v -0.73 a 4.44,4.44 0 0 0 0.84,-0.1 2.77,2.77 0 0 0 0.66,-0.13 1,1 0 0 0 0.47,-0.4 1.22,1.22 0 0 0 0.13,-0.64 v -10.68 a 1.49,1.49 0 0 0 -0.1,-0.59 0.86,0.86 0 0 0 -0.46,-0.44 3.24,3.24 0 0 0 -0.77,-0.23 c -0.33,-0.07 -0.57,-0.1 -0.77,-0.13 v -0.74 h 11.48 v 3.6 h -0.79 a 5,5 0 0 0 -0.9,-1.7 2.07,2.07 0 0 0 -1.33,-1 c -0.24,0 -0.47,0 -0.77,-0.07 -0.3,-0.07 -0.63,0 -1,0 h -2.33 v 5.89 h 1.66 a 3.16,3.16 0 0 0 1.17,-0.17 1.9,1.9 0 0 0 0.66,-0.5 2.22,2.22 0 0 0 0.4,-0.8 5.14,5.14 0 0 0 0.2,-1 h 0.8 v 5.79 h -0.8 a 4.38,4.38 0 0 0 -0.23,-1.07 4.82,4.82 0 0 0 -0.37,-0.8 1.43,1.43 0 0 0 -0.73,-0.53 4.28,4.28 0 0 0 -1.1,-0.13 h -1.66 v 4.46 a 4.42,4.42 0 0 0 0.1,1.06 1.07,1.07 0 0 0 0.37,0.6 1.53,1.53 0 0 0 0.73,0.27 c 0.3,0 0.76,0.06 1.33,0.06 h 0.9 a 9.24,9.24 0 0 0 1,0 3.83,3.83 0 0 0 0.83,-0.17 1.13,1.13 0 0 0 0.6,-0.3 5.24,5.24 0 0 0 1,-1.53 9,9 0 0 0 0.67,-1.49 h 0.76 z m 8,4.39 H 213 v -0.73 c 0.2,0 0.46,0 0.83,-0.06 a 3,3 0 0 0 0.77,-0.14 1,1 0 0 0 0.5,-0.36 1.35,1.35 0 0 0 0.16,-0.67 v -10.75 a 1.49,1.49 0 0 0 -0.1,-0.59 0.83,0.83 0 0 0 -0.53,-0.4 6.15,6.15 0 0 0 -0.8,-0.24 L 213,100 v -0.73 h 6.68 V 100 a 5.79,5.79 0 0 0 -0.76,0.07 5.13,5.13 0 0 0 -0.8,0.16 1,1 0 0 0 -0.53,0.4 1.35,1.35 0 0 0 -0.14,0.63 V 112 a 1.17,1.17 0 0 0 0.17,0.6 1,1 0 0 0 0.53,0.43 2.23,2.23 0 0 0 0.73,0.17 4.11,4.11 0 0 0 0.84,0.1 v 0.76 z M 247.24,100 a 3.61,3.61 0 0 0 -0.87,0.13 3.75,3.75 0 0 0 -0.93,0.33 1.59,1.59 0 0 0 -0.5,1 9.61,9.61 0 0 0 -0.13,1.83 v 6.46 a 4.26,4.26 0 0 1 -0.5,2.12 4.54,4.54 0 0 1 -1.36,1.5 6.27,6.27 0 0 1 -1.73,0.8 6.47,6.47 0 0 1 -1.77,0.23 7.6,7.6 0 0 1 -2.39,-0.36 5.59,5.59 0 0 1 -1.77,-0.93 4.16,4.16 0 0 1 -1.06,-1.37 3.79,3.79 0 0 1 -0.37,-1.6 v -8.78 a 1.16,1.16 0 0 0 -0.13,-0.6 1.13,1.13 0 0 0 -0.5,-0.46 2.78,2.78 0 0 0 -0.66,-0.24 3.39,3.39 0 0 0 -0.67,-0.1 v -0.73 h 6.19 v 0.73 a 3.91,3.91 0 0 0 -0.73,0.1 4.89,4.89 0 0 0 -0.67,0.17 0.73,0.73 0 0 0 -0.46,0.43 1.87,1.87 0 0 0 -0.14,0.63 v 8.22 a 5.94,5.94 0 0 0 0.14,1.27 3.59,3.59 0 0 0 0.53,1.23 2.65,2.65 0 0 0 1.1,0.93 4.32,4.32 0 0 0 1.93,0.37 4.85,4.85 0 0 0 1.93,-0.37 3,3 0 0 0 1.23,-1 2.86,2.86 0 0 0 0.6,-1.19 4,4 0 0 0 0.16,-1.23 v -6.09 a 9.83,9.83 0 0 0 -0.16,-1.9 1.45,1.45 0 0 0 -0.5,-1 2.85,2.85 0 0 0 -1,-0.4 4.81,4.81 0 0 0 -1,-0.17 v -0.73 h 6.06 v 0.7 z m 16.43,0 a 4.2,4.2 0 0 0 -0.89,0.16 2.37,2.37 0 0 0 -0.87,0.34 1.27,1.27 0 0 0 -0.5,1 10.21,10.21 0 0 0 -0.13,1.9 v 10.88 h -0.9 l -9,-12.14 v 7.65 a 9.35,9.35 0 0 0 0.16,2 1.78,1.78 0 0 0 0.5,1 2.3,2.3 0 0 0 1,0.43 4.47,4.47 0 0 0 1,0.2 v 0.73 H 248 v -0.73 a 3.78,3.78 0 0 0 1,-0.2 2.65,2.65 0 0 0 0.83,-0.33 1.71,1.71 0 0 0 0.5,-0.9 10.12,10.12 0 0 0 0.13,-2.06 v -7.32 a 3.36,3.36 0 0 0 -0.17,-1 1.49,1.49 0 0 0 -0.46,-0.73 3.59,3.59 0 0 0 -1,-0.6 3.31,3.31 0 0 0 -1,-0.26 v -0.74 h 4.23 l 8.35,11.32 v -7.06 a 9.76,9.76 0 0 0 -0.17,-2 1.58,1.58 0 0 0 -0.46,-0.93 3.19,3.19 0 0 0 -1,-0.4 3.41,3.41 0 0 0 -1,-0.2 v -0.74 h 6 V 100 Z m 7.69,14.1 h -6.69 v -0.73 c 0.2,0 0.47,0 0.83,-0.06 a 3,3 0 0 0 0.77,-0.14 1,1 0 0 0 0.5,-0.36 1.25,1.25 0 0 0 0.16,-0.67 v -10.8 a 1.7,1.7 0 0 0 -0.09,-0.59 0.88,0.88 0 0 0 -0.54,-0.4 5.7,5.7 0 0 0 -0.8,-0.24 l -0.76,-0.13 v -0.73 h 6.69 V 100 a 5.78,5.78 0 0 0 -0.77,0.07 5.38,5.38 0 0 0 -0.8,0.16 1,1 0 0 0 -0.53,0.4 1.35,1.35 0 0 0 -0.13,0.63 V 112 a 0.94,0.94 0 0 0 0.16,0.6 1,1 0 0 0 0.54,0.43 2.16,2.16 0 0 0 0.73,0.17 4,4 0 0 0 0.83,0.1 v 0.76 z M 286.9,100 a 2,2 0 0 0 -0.67,0.13 2.48,2.48 0 0 0 -0.63,0.27 1.61,1.61 0 0 0 -0.57,0.56 c -0.13,0.23 -0.26,0.5 -0.43,0.83 q -0.69,1.65 -2.09,5.19 c -0.94,2.33 -1.9,4.79 -2.9,7.32 h -0.86 c -1,-2.69 -2,-5.29 -2.9,-7.82 -0.9,-2.53 -1.56,-4.19 -1.89,-5.05 a 2,2 0 0 0 -0.34,-0.57 2.47,2.47 0 0 0 -1.2,-0.73 2.11,2.11 0 0 0 -0.63,-0.1 V 99.3 h 6.12 v 0.7 a 6.65,6.65 0 0 0 -1.33,0.17 c -0.36,0.06 -0.53,0.2 -0.53,0.4 a 0.9,0.9 0 0 0 0,0.26 c 0,0.1 0,0.2 0.07,0.27 0.27,0.7 0.67,1.79 1.27,3.33 0.6,1.54 1.39,3.75 2.46,6.58 0.53,-1.29 1.13,-2.83 1.83,-4.56 0.7,-1.73 1.16,-3 1.39,-3.62 a 6.48,6.48 0 0 0 0.4,-1.33 4,4 0 0 0 0.07,-0.6 0.48,0.48 0 0 0 -0.2,-0.4 1.83,1.83 0 0 0 -0.56,-0.27 6.36,6.36 0 0 0 -0.7,-0.16 4.32,4.32 0 0 0 -0.74,-0.07 v -0.73 h 5.53 v 0.7 z m 13.1,9.66 -0.26,4.36 H 287.4 v -0.73 a 4.26,4.26 0 0 0 0.83,-0.1 2.77,2.77 0 0 0 0.66,-0.13 1,1 0 0 0 0.47,-0.4 1.22,1.22 0 0 0 0.13,-0.64 v -10.68 a 1.49,1.49 0 0 0 -0.1,-0.59 0.83,0.83 0 0 0 -0.46,-0.44 3.24,3.24 0 0 0 -0.77,-0.23 c -0.33,-0.07 -0.56,-0.1 -0.76,-0.13 v -0.74 h 11.48 v 3.6 h -0.8 a 5,5 0 0 0 -0.9,-1.7 2.07,2.07 0 0 0 -1.33,-1 c -0.24,0 -0.47,0 -0.77,-0.07 -0.3,-0.07 -0.63,0 -1,0 h -2.33 v 5.89 h 1.67 a 3.14,3.14 0 0 0 1.16,-0.17 1.93,1.93 0 0 0 0.67,-0.5 2.39,2.39 0 0 0 0.39,-0.8 5.14,5.14 0 0 0 0.2,-1 h 0.8 v 5.79 h -0.8 a 4.38,4.38 0 0 0 -0.23,-1.07 5,5 0 0 0 -0.36,-0.8 1.45,1.45 0 0 0 -0.74,-0.53 4.26,4.26 0 0 0 -1.09,-0.13 h -1.67 v 4.46 a 5,5 0 0 0 0.1,1.06 1.07,1.07 0 0 0 0.37,0.6 1.53,1.53 0 0 0 0.73,0.27 c 0.3,0 0.77,0.06 1.33,0.06 h 0.9 a 9.24,9.24 0 0 0 1,0 3.91,3.91 0 0 0 0.82,-0.17 1.14,1.14 0 0 0 0.59,-0.3 5.24,5.24 0 0 0 1,-1.53 9,9 0 0 0 0.67,-1.49 H 300 Z m 16,4.39 h -4 c -0.9,-1.39 -1.7,-2.59 -2.39,-3.59 -0.69,-1 -1.5,-2.06 -2.33,-3.13 h -1.58 v 4.73 a 1.74,1.74 0 0 0 0.1,0.63 0.79,0.79 0 0 0 0.49,0.43 2.21,2.21 0 0 0 0.67,0.14 c 0.3,0 0.57,0.06 0.8,0.06 v 0.73 h -6.29 v -0.73 c 0.17,0 0.4,0 0.73,-0.06 a 2.14,2.14 0 0 0 0.67,-0.14 1.07,1.07 0 0 0 0.46,-0.4 1.29,1.29 0 0 0 0.14,-0.66 v -10.75 a 2.34,2.34 0 0 0 -0.1,-0.66 0.77,0.77 0 0 0 -0.5,-0.44 3,3 0 0 0 -0.67,-0.16 2.74,2.74 0 0 0 -0.7,-0.1 v -0.74 h 6.86 a 7.46,7.46 0 0 1 1.76,0.2 4.42,4.42 0 0 1 1.5,0.64 3,3 0 0 1 1,1.09 3.18,3.18 0 0 1 0.4,1.63 4.44,4.44 0 0 1 -0.27,1.54 2.93,2.93 0 0 1 -0.76,1.13 4,4 0 0 1 -1.13,0.76 9.37,9.37 0 0 1 -1.47,0.57 c 0.73,1 1.33,1.79 1.83,2.46 0.5,0.67 1.07,1.46 1.8,2.43 a 3.93,3.93 0 0 0 0.83,0.93 4.52,4.52 0 0 0 0.73,0.5 1.71,1.71 0 0 0 0.67,0.2 c 0.26,0 0.5,0.07 0.66,0.07 v 0.69 z M 310.42,103 a 3,3 0 0 0 -0.76,-2.12 2.86,2.86 0 0 0 -2.2,-0.8 h -1.76 v 6.35 h 1.36 a 3.27,3.27 0 0 0 2.4,-0.93 3.18,3.18 0 0 0 1,-2.5 z m 15.34,4.26 a 4.33,4.33 0 0 1 0.7,1.13 4,4 0 0 1 0.23,1.44 4.26,4.26 0 0 1 -1.46,3.26 5.21,5.21 0 0 1 -3.6,1.26 6.86,6.86 0 0 1 -2,-0.3 7.06,7.06 0 0 1 -1.7,-0.76 l -0.47,0.76 h -0.83 l -0.13,-5.09 h 0.86 a 10.85,10.85 0 0 0 0.6,1.7 6.85,6.85 0 0 0 0.93,1.43 5.34,5.34 0 0 0 1.27,1 4,4 0 0 0 1.7,0.36 3.58,3.58 0 0 0 1.26,-0.2 2.08,2.08 0 0 0 1.36,-1.33 3.36,3.36 0 0 0 0.17,-1.06 3,3 0 0 0 -2,-2.83 l -1.56,-0.6 c -0.6,-0.23 -1.1,-0.43 -1.53,-0.63 a 4.78,4.78 0 0 1 -2,-1.5 3.92,3.92 0 0 1 0.63,-5.29 5.26,5.26 0 0 1 1.43,-0.87 5.6,5.6 0 0 1 3.56,0 8.31,8.31 0 0 1 1.46,0.74 l 0.44,-0.7 H 326 l 0.06,4.92 h -0.83 c -0.16,-0.56 -0.33,-1.1 -0.53,-1.63 a 4.83,4.83 0 0 0 -0.76,-1.4 3.49,3.49 0 0 0 -1.1,-1 3.41,3.41 0 0 0 -1.6,-0.37 2.37,2.37 0 0 0 -1.7,0.64 2,2 0 0 0 -0.7,1.56 2.77,2.77 0 0 0 0.47,1.6 3.18,3.18 0 0 0 1.3,1 16,16 0 0 0 1.5,0.63 c 0.49,0.17 1,0.37 1.43,0.57 a 6.4,6.4 0 0 1 1.19,0.63 7.15,7.15 0 0 1 1.07,0.86 z m 9.25,6.82 h -6.69 v -0.73 c 0.2,0 0.47,0 0.83,-0.06 a 3,3 0 0 0 0.77,-0.14 1,1 0 0 0 0.5,-0.36 1.25,1.25 0 0 0 0.16,-0.67 v -10.78 a 1.49,1.49 0 0 0 -0.1,-0.59 0.83,0.83 0 0 0 -0.53,-0.4 6.15,6.15 0 0 0 -0.8,-0.24 l -0.76,-0.13 v -0.73 h 6.68 V 100 a 5.79,5.79 0 0 0 -0.76,0.07 5.13,5.13 0 0 0 -0.8,0.16 1,1 0 0 0 -0.53,0.4 1.35,1.35 0 0 0 -0.13,0.63 V 112 a 1.17,1.17 0 0 0 0.16,0.6 1,1 0 0 0 0.53,0.43 2.23,2.23 0 0 0 0.74,0.17 4,4 0 0 0 0.83,0.1 v 0.76 z m 13.91,-10.81 h -0.74 a 3.7,3.7 0 0 0 -0.33,-0.9 5.52,5.52 0 0 0 -0.57,-1 3.15,3.15 0 0 0 -0.69,-0.83 1.3,1.3 0 0 0 -0.74,-0.4 c -0.2,0 -0.49,0 -0.79,-0.07 -0.3,-0.07 -0.64,0 -0.9,0 h -0.6 v 11.87 a 1.36,1.36 0 0 0 0.13,0.64 0.93,0.93 0 0 0 0.5,0.43 l 0.8,0.2 a 6.3,6.3 0 0 0 0.93,0.13 v 0.73 h -7 v -0.73 c 0.2,0 0.5,0 0.9,-0.06 a 3.06,3.06 0 0 0 0.83,-0.17 1,1 0 0 0 0.5,-0.4 1.36,1.36 0 0 0 0.17,-0.7 V 100 h -0.6 a 5.77,5.77 0 0 0 -0.8,0 9.09,9.09 0 0 0 -0.93,0.06 1.49,1.49 0 0 0 -0.73,0.4 c -0.24,0.27 -0.47,0.53 -0.7,0.83 a 7.92,7.92 0 0 0 -0.57,1 5,5 0 0 0 -0.33,0.87 h -0.73 v -4 h 12.91 v 4.06 z M 362.86,100 a 2.81,2.81 0 0 0 -0.57,0.13 2.35,2.35 0 0 0 -0.57,0.27 3.47,3.47 0 0 0 -0.56,0.4 7.22,7.22 0 0 0 -0.57,0.69 c -0.53,0.77 -1,1.53 -1.49,2.33 -0.49,0.8 -1,1.8 -1.73,3 a 3.83,3.83 0 0 0 -0.5,1.06 3.7,3.7 0 0 0 -0.14,1.2 v 2.83 a 1.4,1.4 0 0 0 0.17,0.66 1,1 0 0 0 0.53,0.44 4,4 0 0 0 0.8,0.2 6.91,6.91 0 0 0 0.9,0.13 V 114 h -6.95 v -0.73 c 0.2,0 0.49,0 0.86,-0.07 a 4.76,4.76 0 0 0 0.8,-0.13 1,1 0 0 0 0.53,-0.43 1.34,1.34 0 0 0 0.13,-0.67 v -3.57 a 1.94,1.94 0 0 0 -0.19,-0.6 c -0.14,-0.3 -0.3,-0.63 -0.5,-1 -0.44,-0.8 -0.9,-1.7 -1.4,-2.63 -0.5,-0.93 -1,-1.76 -1.33,-2.43 a 5.57,5.57 0 0 0 -0.6,-0.89 3.49,3.49 0 0 0 -0.6,-0.54 2.78,2.78 0 0 0 -0.6,-0.23 2.11,2.11 0 0 0 -0.63,-0.1 V 99.25 H 355 V 100 a 7.72,7.72 0 0 0 -1.5,0.13 c -0.3,0.07 -0.43,0.2 -0.43,0.37 a 1,1 0 0 0 0.07,0.23 c 0,0.1 0.1,0.23 0.16,0.4 0.06,0.17 0.2,0.4 0.34,0.63 0.14,0.23 0.23,0.47 0.36,0.67 0.34,0.63 0.67,1.23 1,1.86 0.33,0.63 0.8,1.43 1.33,2.4 1.1,-1.77 1.93,-3.13 2.5,-4.13 a 7.31,7.31 0 0 0 0.86,-1.76 0.54,0.54 0 0 0 -0.16,-0.4 1.47,1.47 0 0 0 -0.47,-0.23 2,2 0 0 0 -0.67,-0.1 c -0.23,0 -0.46,0 -0.66,-0.07 v -0.73 h 5.16 v 0.7 z m 23.14,1 a 7,7 0 0 1 1.53,2.46 8.87,8.87 0 0 1 0.57,3.19 8.73,8.73 0 0 1 -0.57,3.2 7.14,7.14 0 0 1 -1.56,2.46 6.42,6.42 0 0 1 -2.27,1.53 6.77,6.77 0 0 1 -2.72,0.53 7.45,7.45 0 0 1 -2.87,-0.56 6.92,6.92 0 0 1 -2.26,-1.63 7.48,7.48 0 0 1 -1.5,-2.46 9.38,9.38 0 0 1 0,-6.33 7.58,7.58 0 0 1 1.56,-2.46 7.21,7.21 0 0 1 2.3,-1.56 6.78,6.78 0 0 1 2.73,-0.53 7.2,7.2 0 0 1 2.79,0.56 6.62,6.62 0 0 1 2.27,1.6 z m -1.53,10.51 a 7.29,7.29 0 0 0 0.86,-2.16 13,13 0 0 0 0.27,-2.7 11.93,11.93 0 0 0 -0.3,-2.79 7.27,7.27 0 0 0 -0.86,-2.16 4.1,4.1 0 0 0 -1.44,-1.4 3.87,3.87 0 0 0 -2,-0.5 4,4 0 0 0 -2.13,0.57 4.06,4.06 0 0 0 -1.43,1.53 7.71,7.71 0 0 0 -0.77,2.16 13.7,13.7 0 0 0 -0.26,2.59 14.3,14.3 0 0 0 0.26,2.73 6.72,6.72 0 0 0 0.87,2.17 4.25,4.25 0 0 0 1.46,1.45 4,4 0 0 0 2.06,0.53 3.92,3.92 0 0 0 2,-0.53 5.07,5.07 0 0 0 1.4,-1.47 z m 17,-8.58 h -0.8 a 5.39,5.39 0 0 0 -0.9,-1.77 2.22,2.22 0 0 0 -1.33,-1 c -0.2,0 -0.46,0 -0.76,-0.06 -0.3,-0.06 -0.63,0 -1,0 h -2.5 v 6 h 1.7 a 3.56,3.56 0 0 0 1.2,-0.17 1.55,1.55 0 0 0 0.73,-0.5 2.14,2.14 0 0 0 0.37,-0.73 4.83,4.83 0 0 0 0.23,-1 h 0.8 v 5.82 h -0.8 a 6.61,6.61 0 0 0 -0.2,-1 2.77,2.77 0 0 0 -0.4,-0.83 1.48,1.48 0 0 0 -0.8,-0.53 3.88,3.88 0 0 0 -1.13,-0.14 h -1.7 V 112 a 1.35,1.35 0 0 0 0.14,0.63 1.13,1.13 0 0 0 0.46,0.43 5.44,5.44 0 0 0 0.67,0.17 4.27,4.27 0 0 0 0.8,0.1 V 114 h -6.42 v -0.73 a 8.1,8.1 0 0 0 0.83,-0.07 1.58,1.58 0 0 0 0.66,-0.13 1.1,1.1 0 0 0 0.47,-0.4 1.27,1.27 0 0 0 0.13,-0.63 v -10.7 a 1.49,1.49 0 0 0 -0.1,-0.59 0.83,0.83 0 0 0 -0.46,-0.44 3.24,3.24 0 0 0 -0.77,-0.23 c -0.33,-0.07 -0.56,-0.1 -0.76,-0.13 v -0.74 h 11.64 v 3.7 z m 24.09,0.33 h -0.73 a 4.26,4.26 0 0 0 -0.34,-0.9 5.46,5.46 0 0 0 -0.56,-1 3.18,3.18 0 0 0 -0.7,-0.83 1.28,1.28 0 0 0 -0.73,-0.4 c -0.2,0 -0.5,0 -0.8,-0.07 -0.3,-0.07 -0.63,0 -0.9,0 h -0.6 v 11.87 a 1.37,1.37 0 0 0 0.14,0.64 0.91,0.91 0 0 0 0.49,0.43 l 0.8,0.2 a 6.3,6.3 0 0 0 0.93,0.13 v 0.73 h -7 v -0.73 c 0.2,0 0.5,0 0.9,-0.06 a 3,3 0 0 0 0.83,-0.17 1,1 0 0 0 0.5,-0.4 1.36,1.36 0 0 0 0.17,-0.7 v -12 h -0.6 a 5.85,5.85 0 0 0 -0.8,0 9.09,9.09 0 0 0 -0.93,0.06 1.57,1.57 0 0 0 -0.73,0.4 c -0.23,0.27 -0.47,0.53 -0.7,0.83 a 7.92,7.92 0 0 0 -0.57,1 7.48,7.48 0 0 0 -0.33,0.87 h -0.73 v -4 h 12.91 v 4.06 z"
         id="path12" />
      <path
         class="cls-1"
         d="M 439.21,109.66 439,114 h -12.36 v -0.73 a 4.26,4.26 0 0 0 0.83,-0.1 2.77,2.77 0 0 0 0.66,-0.13 1,1 0 0 0 0.47,-0.4 1.22,1.22 0 0 0 0.13,-0.64 v -10.66 a 1.49,1.49 0 0 0 -0.1,-0.59 0.83,0.83 0 0 0 -0.46,-0.44 3.24,3.24 0 0 0 -0.77,-0.23 c -0.33,-0.07 -0.56,-0.1 -0.76,-0.13 v -0.74 h 11.48 v 3.6 h -0.8 a 5,5 0 0 0 -0.9,-1.7 2.07,2.07 0 0 0 -1.33,-1 c -0.24,0 -0.47,0 -0.77,-0.07 -0.3,-0.07 -0.63,0 -1,0 H 431 v 5.89 h 1.67 a 3.14,3.14 0 0 0 1.16,-0.17 1.93,1.93 0 0 0 0.67,-0.5 2.39,2.39 0 0 0 0.39,-0.8 5.14,5.14 0 0 0 0.2,-1 h 0.8 v 5.79 h -0.8 a 4.38,4.38 0 0 0 -0.23,-1.07 5,5 0 0 0 -0.36,-0.8 1.45,1.45 0 0 0 -0.74,-0.53 4.26,4.26 0 0 0 -1.09,-0.13 H 431 v 4.46 a 5,5 0 0 0 0.1,1.06 1.07,1.07 0 0 0 0.37,0.6 1.53,1.53 0 0 0 0.73,0.27 c 0.3,0 0.77,0.06 1.33,0.06 h 0.9 a 9.24,9.24 0 0 0 1,0 3.91,3.91 0 0 0 0.84,-0.17 1.14,1.14 0 0 0 0.59,-0.3 5.24,5.24 0 0 0 1,-1.53 9,9 0 0 0 0.67,-1.49 h 0.76 z m 8.06,4.73 a 5.87,5.87 0 0 1 -2.53,-0.54 6.9,6.9 0 0 1 -2.17,-1.49 7.32,7.32 0 0 1 -1.49,-2.4 8.56,8.56 0 0 1 -0.57,-3.19 9.12,9.12 0 0 1 0.53,-3.23 8,8 0 0 1 1.5,-2.5 6.4,6.4 0 0 1 2.26,-1.59 7,7 0 0 1 2.76,-0.57 7.27,7.27 0 0 1 2,0.27 6.32,6.32 0 0 1 1.7,0.76 l 0.43,-0.7 h 0.83 l 0.1,5.29 h -0.86 a 10.78,10.78 0 0 0 -0.5,-1.66 7.53,7.53 0 0 0 -0.8,-1.53 3.81,3.81 0 0 0 -1.2,-1.1 3.22,3.22 0 0 0 -1.6,-0.4 4.19,4.19 0 0 0 -1.89,0.47 3.82,3.82 0 0 0 -1.5,1.33 6.84,6.84 0 0 0 -1,2.16 11,11 0 0 0 -0.34,2.93 9,9 0 0 0 0.37,2.6 6.1,6.1 0 0 0 1,2.09 4.56,4.56 0 0 0 1.6,1.4 4.21,4.21 0 0 0 2,0.5 4.56,4.56 0 0 0 1.56,-0.27 3.53,3.53 0 0 0 1.23,-0.7 5,5 0 0 0 0.93,-1 7.56,7.56 0 0 0 0.67,-1.26 l 0.76,0.36 a 6.39,6.39 0 0 1 -2.39,3.16 7,7 0 0 1 -3.49,0.84 z m 22.59,-0.34 h -6.16 v -0.73 c 0.17,0 0.4,0 0.73,-0.06 a 2.07,2.07 0 0 0 0.67,-0.14 0.84,0.84 0 0 0 0.46,-0.36 1.33,1.33 0 0 0 0.14,-0.67 v -5.29 h -7 v 5.2 a 1.27,1.27 0 0 0 0.13,0.63 1,1 0 0 0 0.47,0.43 2.32,2.32 0 0 0 0.63,0.2 3.22,3.22 0 0 0 0.73,0.1 v 0.73 h -6.19 v -0.73 c 0.17,0 0.4,0 0.74,-0.06 a 2.06,2.06 0 0 0 0.66,-0.14 0.86,0.86 0 0 0 0.47,-0.36 1.34,1.34 0 0 0 0.13,-0.67 v -10.75 a 1.11,1.11 0 0 0 -0.13,-0.6 1,1 0 0 0 -0.47,-0.43 3.57,3.57 0 0 0 -0.7,-0.24 c -0.26,-0.06 -0.5,-0.1 -0.7,-0.13 v -0.73 h 6.16 V 100 a 3.22,3.22 0 0 0 -0.73,0.1 3.8,3.8 0 0 0 -0.63,0.17 0.75,0.75 0 0 0 -0.47,0.43 1.86,1.86 0 0 0 -0.13,0.63 v 4.59 h 7 v -4.49 a 1.16,1.16 0 0 0 -0.13,-0.6 1,1 0 0 0 -0.46,-0.43 3.19,3.19 0 0 0 -0.7,-0.23 c -0.27,-0.07 -0.5,-0.1 -0.7,-0.14 V 99.3 h 6.15 v 0.7 a 3.91,3.91 0 0 0 -0.73,0.1 3.8,3.8 0 0 0 -0.63,0.17 0.78,0.78 0 0 0 -0.47,0.43 2.14,2.14 0 0 0 -0.13,0.63 v 10.72 a 1.27,1.27 0 0 0 0.13,0.63 1,1 0 0 0 0.47,0.43 2.32,2.32 0 0 0 0.63,0.2 3.22,3.22 0 0 0 0.73,0.1 v 0.63 z m 17.3,-14.1 a 4.27,4.27 0 0 0 -0.9,0.16 2.37,2.37 0 0 0 -0.87,0.34 1.31,1.31 0 0 0 -0.5,1 10.21,10.21 0 0 0 -0.13,1.9 v 10.88 h -0.9 l -9,-12.14 v 7.65 a 9.22,9.22 0 0 0 0.17,2 1.72,1.72 0 0 0 0.5,1 2.2,2.2 0 0 0 1,0.43 4.58,4.58 0 0 0 1,0.2 v 0.73 h -6.09 v -0.73 a 3.78,3.78 0 0 0 1,-0.2 2.65,2.65 0 0 0 0.83,-0.33 1.71,1.71 0 0 0 0.5,-0.9 10.12,10.12 0 0 0 0.13,-2.06 v -7.32 a 3.34,3.34 0 0 0 -0.16,-1 1.5,1.5 0 0 0 -0.47,-0.73 3.59,3.59 0 0 0 -1,-0.6 3.27,3.27 0 0 0 -1,-0.26 v -0.74 h 4.22 l 8.35,11.32 v -7.06 a 9.89,9.89 0 0 0 -0.16,-2 1.58,1.58 0 0 0 -0.47,-0.93 3.23,3.23 0 0 0 -1,-0.4 3.52,3.52 0 0 0 -1,-0.2 v -0.74 h 6 V 100 Z m 13.21,1 a 7,7 0 0 1 1.53,2.46 9.09,9.09 0 0 1 0.56,3.19 8.94,8.94 0 0 1 -0.56,3.2 7,7 0 0 1 -1.57,2.46 6.29,6.29 0 0 1 -2.26,1.53 6.78,6.78 0 0 1 -2.73,0.53 7.44,7.44 0 0 1 -2.86,-0.56 6.92,6.92 0 0 1 -2.26,-1.63 7.48,7.48 0 0 1 -1.5,-2.46 8.6,8.6 0 0 1 -0.53,-3.1 9,9 0 0 1 0.56,-3.23 7.61,7.61 0 0 1 1.57,-2.46 7.17,7.17 0 0 1 2.29,-1.56 6.85,6.85 0 0 1 2.73,-0.53 7.25,7.25 0 0 1 2.8,0.56 7.15,7.15 0 0 1 2.23,1.6 z m -1.57,10.51 a 7.3,7.3 0 0 0 0.87,-2.16 13.74,13.74 0 0 0 0.26,-2.7 11.93,11.93 0 0 0 -0.3,-2.79 7.27,7.27 0 0 0 -0.86,-2.16 4.16,4.16 0 0 0 -1.43,-1.4 3.91,3.91 0 0 0 -2,-0.5 4,4 0 0 0 -2.13,0.57 4.14,4.14 0 0 0 -1.43,1.53 7.41,7.41 0 0 0 -0.78,2.15 12.92,12.92 0 0 0 -0.27,2.59 13.51,13.51 0 0 0 0.27,2.73 6.49,6.49 0 0 0 0.86,2.17 4.44,4.44 0 0 0 1.43,1.43 4.1,4.1 0 0 0 2.07,0.53 3.86,3.86 0 0 0 2,-0.53 4.49,4.49 0 0 0 1.4,-1.47 z m 17.44,-1.86 -0.3,4.42 h -11.61 v -0.73 c 0.16,0 0.39,0 0.73,-0.06 a 2.06,2.06 0 0 0 0.66,-0.14 1.1,1.1 0 0 0 0.47,-0.4 1.3,1.3 0 0 0 0.13,-0.66 v -10.59 a 1.35,1.35 0 0 0 -0.13,-0.63 0.87,0.87 0 0 0 -0.47,-0.43 4.95,4.95 0 0 0 -1.39,-0.37 v -0.73 h 6.25 V 100 a 4.76,4.76 0 0 0 -0.77,0.1 l -0.66,0.17 a 0.82,0.82 0 0 0 -0.5,0.43 1.49,1.49 0 0 0 -0.13,0.67 v 10 a 8.53,8.53 0 0 0 0.06,1.06 0.9,0.9 0 0 0 0.34,0.6 1.34,1.34 0 0 0 0.73,0.24 c 0.33,0 0.76,0.06 1.33,0.06 a 7.13,7.13 0 0 0 0.8,0 3.19,3.19 0 0 0 0.8,-0.1 3.36,3.36 0 0 0 0.66,-0.17 1.16,1.16 0 0 0 0.47,-0.26 8.13,8.13 0 0 0 1,-1.47 17.48,17.48 0 0 0 0.79,-1.59 h 0.74 z m 13,-8.65 a 6.71,6.71 0 0 1 1.53,2.46 8.87,8.87 0 0 1 0.57,3.19 8.73,8.73 0 0 1 -0.57,3.2 7,7 0 0 1 -1.56,2.46 6.47,6.47 0 0 1 -2.26,1.53 6.85,6.85 0 0 1 -2.73,0.53 7.4,7.4 0 0 1 -2.86,-0.56 7,7 0 0 1 -2.27,-1.63 7.3,7.3 0 0 1 -1.49,-2.46 8.6,8.6 0 0 1 -0.54,-3.1 8.82,8.82 0 0 1 0.57,-3.23 7.75,7.75 0 0 1 1.56,-2.46 7.21,7.21 0 0 1 2.3,-1.56 6.78,6.78 0 0 1 2.73,-0.53 7.16,7.16 0 0 1 2.79,0.56 6.62,6.62 0 0 1 2.23,1.6 z m -1.56,10.51 a 7.29,7.29 0 0 0 0.86,-2.16 13,13 0 0 0 0.27,-2.7 11.93,11.93 0 0 0 -0.3,-2.79 7,7 0 0 0 -0.87,-2.16 4,4 0 0 0 -1.43,-1.4 3.87,3.87 0 0 0 -2,-0.5 4,4 0 0 0 -2.13,0.57 4.06,4.06 0 0 0 -1.43,1.53 7.71,7.71 0 0 0 -0.77,2.16 13.7,13.7 0 0 0 -0.26,2.59 14.3,14.3 0 0 0 0.26,2.73 6.72,6.72 0 0 0 0.87,2.17 4.25,4.25 0 0 0 1.43,1.43 4,4 0 0 0 2.06,0.53 3.92,3.92 0 0 0 2,-0.53 4.71,4.71 0 0 0 1.4,-1.47 z m 19.89,-3.36 c -0.16,0 -0.39,0.07 -0.66,0.1 a 2.05,2.05 0 0 0 -0.7,0.2 0.89,0.89 0 0 0 -0.43,0.43 1.52,1.52 0 0 0 -0.14,0.67 v 2.86 c 0,0.3 0,0.53 0,0.73 a 17.21,17.21 0 0 1 -2.76,1 11.25,11.25 0 0 1 -2.7,0.33 7,7 0 0 1 -2.73,-0.53 7,7 0 0 1 -3.86,-4 8.18,8.18 0 0 1 -0.6,-3.2 8.57,8.57 0 0 1 0.57,-3.12 7.41,7.41 0 0 1 1.6,-2.53 7.63,7.63 0 0 1 7.48,-1.9 6.46,6.46 0 0 1 1.63,0.73 l 0.44,-0.7 h 0.83 l 0.1,5.2 h -0.87 a 15.15,15.15 0 0 0 -0.53,-1.7 6.33,6.33 0 0 0 -0.83,-1.5 3.85,3.85 0 0 0 -1.27,-1.06 3.55,3.55 0 0 0 -1.76,-0.4 4.12,4.12 0 0 0 -3.53,1.83 6.09,6.09 0 0 0 -1,2.16 10.81,10.81 0 0 0 -0.34,2.89 9.68,9.68 0 0 0 0.34,2.67 6.82,6.82 0 0 0 1,2.16 4.65,4.65 0 0 0 1.63,1.46 4.37,4.37 0 0 0 2.2,0.53 5.12,5.12 0 0 0 1.66,-0.26 3.36,3.36 0 0 0 1.07,-0.6 5.85,5.85 0 0 0 0.1,-1.1 v -1.76 a 1.77,1.77 0 0 0 -0.13,-0.77 0.78,0.78 0 0 0 -0.5,-0.5 2.93,2.93 0 0 0 -0.94,-0.23 5.37,5.37 0 0 0 -0.93,-0.1 v -0.76 h 6.52 v 0.76 z m 13.85,-8.1 a 3,3 0 0 0 -0.57,0.13 2.25,2.25 0 0 0 -0.56,0.27 3.22,3.22 0 0 0 -0.57,0.4 6.22,6.22 0 0 0 -0.56,0.69 c -0.54,0.77 -1,1.53 -1.5,2.33 -0.5,0.8 -1,1.8 -1.73,3 a 4.15,4.15 0 0 0 -0.5,1.06 3.75,3.75 0 0 0 -0.13,1.2 v 2.83 a 1.4,1.4 0 0 0 0.16,0.66 1,1 0 0 0 0.54,0.44 3.69,3.69 0 0 0 0.79,0.2 6.91,6.91 0 0 0 0.9,0.13 V 114 h -7 v -0.73 c 0.2,0 0.5,0 0.86,-0.07 a 4.76,4.76 0 0 0 0.8,-0.13 1,1 0 0 0 0.53,-0.43 1.33,1.33 0 0 0 0.14,-0.67 v -3.57 a 2.07,2.07 0 0 0 -0.2,-0.6 c -0.14,-0.3 -0.3,-0.63 -0.5,-1 l -1.4,-2.63 c -0.5,-0.93 -1,-1.76 -1.33,-2.43 a 5.57,5.57 0 0 0 -0.6,-0.89 2.88,2.88 0 0 0 -0.6,-0.54 2.43,2.43 0 0 0 -0.6,-0.23 2.11,2.11 0 0 0 -0.63,-0.1 v -0.73 h 6.32 V 100 a 7.6,7.6 0 0 0 -1.49,0.13 c -0.3,0.07 -0.44,0.2 -0.44,0.37 a 2.19,2.19 0 0 0 0.07,0.23 c 0,0.1 0.1,0.23 0.17,0.4 0.07,0.17 0.2,0.4 0.33,0.63 a 7,7 0 0 0 0.37,0.67 c 0.33,0.63 0.66,1.23 1,1.86 0.34,0.63 0.8,1.43 1.33,2.4 1.1,-1.77 1.93,-3.13 2.5,-4.13 a 6.89,6.89 0 0 0 0.86,-1.76 0.54,0.54 0 0 0 -0.16,-0.4 1.38,1.38 0 0 0 -0.47,-0.23 2,2 0 0 0 -0.66,-0.1 c -0.24,0 -0.47,0 -0.67,-0.07 v -0.73 h 5.16 v 0.7 z"
         id="path13" />
      <path
         class="cls-2"
         d="m 153.31,71.77 c 3.2,-2.47 6.52,-4.66 8.45,-8.39 a 3.58,3.58 0 0 1 0.8,-1.16 l 3,-2.83 a 104,104 0 0 0 10,-10.75 c 3.36,-3.72 3.13,-6.68 4,-9.81 2.66,-4.53 4.59,-9.19 9.25,-13.28 1.23,-0.7 4.26,-0.13 5.29,0.5 a 22.89,22.89 0 0 1 0.7,13 c -0.17,0.83 0.9,3.26 0.9,4.13 a 64,64 0 0 1 11.14,8.15 c 1.33,1.16 2.93,2.19 4.3,3.56 7.15,1.33 18.93,2.49 20,5.05 1,2.13 0,4 -3.23,5.46 a 62,62 0 0 1 -14.7,1.4 c -1.63,-0.07 -1.83,-0.27 -3.13,-1.3 a 104.18,104.18 0 0 0 -10.55,-7.42 l -1.13,-0.73 -0.3,-1 -1,-0.9 -1.3,-0.33 -1.43,-1.73 c -3.29,-4.89 -6.85,-6.15 -10.75,-3 l -2.76,1.76 c -0.8,0.5 -0.83,1.66 -1.3,2.53 l -1.13,1.83 -1.33,0.73 -0.9,1.86 -2.09,2.2 -1.47,0.6 a 10.21,10.21 0 0 1 -2.22,2.53 l -3.7,2.57 c -1,1.17 -2.09,2.23 -3.06,3.43 l -0.3,0.63 a 1.26,1.26 0 0 1 -0.63,0.74 l -0.8,0.46 c -0.46,0.27 -0.37,0.67 -0.37,1.17 0,0.5 -0.06,0.43 -0.36,0.69 l -1.13,0.9 -1,0.87 h -2 l -1.46,-0.16 -1,-0.34 -0.76,-0.73 -0.3,-0.63 c -0.44,-1.1 -1.17,-1.57 -0.24,-2.26 z m 32.78,-7.49 -1.6,-0.57 -0.6,-2.42 1.2,-1.8 1,-1 0.66,-0.83 0.77,-0.1 1.23,-0.57 0.76,-0.1 c 2.2,-0.3 4.13,-0.3 6.12,-0.4 l 0.8,1.43 -0.1,1.93 -0.23,1.37 -0.66,0.69 -0.54,1.09 -1.06,0.7 -0.73,0.77 -0.8,0.3 -0.77,0.1 h -1 l -1.1,0.17 -1,1 -0.66,0.7 -0.84,0.76 -0.63,-0.33 0.17,-1.3 -0.43,-1.63 z m -4.13,5 1,0.8 6.22,0.33 1.43,-0.23 1.49,-0.7 0.84,-0.17 1.16,-0.1 2.26,0.57 1,1.06 0.53,1.7 0.6,1.63 -0.1,1.93 -0.06,2.6 -0.6,0.89 -0.37,1.8 -0.5,1.23 -0.46,0.9 -0.87,0.77 a 12.58,12.58 0 0 1 -5.19,-0.17 l 0.13,-0.7 -1.69,0.23 -0.53,1 -0.8,0.56 -1.1,0.17 -1,-0.4 c -2.32,-1.73 -4.15,-4.46 -5.79,-7.65 l -0.33,-1.9 0.43,-2.39 -0.23,-0.6 1.4,-1.6 1.17,-1.57 z m 5.72,5.22 0.67,-0.3 0.76,-0.09 h 0.9 l 0.7,0.13 0.63,0.47 0.24,1.43 -0.17,0.9 -0.93,0.43 -0.67,0.7 -0.53,0.43 h -1 l 0.26,-0.56 -0.76,-0.07 -0.5,-0.46 -0.17,-1.1 v -1 l 0.56,-1 z"
         id="path14" />
      <path
         class="cls-2"
         d="m 240.72,84.18 -0.24,-1.7 -0.1,-2 0.07,-2.23 -0.2,-1.9 -0.26,-3 0.49,-2.33 0.64,-2.42 1.53,-1.8 0.53,-0.5 0.17,-1.3 1.19,-0.76 0.27,-1.17 0.67,-0.26 0.46,-1.63 0.77,-1.17 0.13,-1.6 0.23,-1.49 0.27,-1.17 0.2,-1.79 v -2 -2 l -0.16,-1.07 0.6,-0.36 -0.24,-2.2 0.24,-2 0.33,-1.56 0.47,-1.63 c 0,0 3.46,-5.59 4.49,-6.06 1.03,-0.47 4.85,-0.26 4.85,-0.26 l 1.07,-1.2 c 2.3,-0.73 4.22,-1 5.46,-0.13 l 1.23,0.36 0.8,1.5 0.13,2.26 -0.47,1.63 -0.76,0.67 -0.87,1.23 -0.13,2.43 0.17,2.09 -0.3,1.37 -0.44,0.63 v 4.73 l -0.53,1 0.43,7 -0.76,1.16 -0.3,2.4 0.4,1.93 1.06,1.66 a 4.78,4.78 0 0 1 1.1,3.33 c 0,2.83 -2.1,6.19 -3.53,4.62 l -1,-1.56 -1,-1.56 -1.47,-1.77 -0.4,-0.9 1.24,-1.46 0.1,-1.93 v -1.53 l -0.63,-1.76 -1.37,-0.8 -1.39,-0.63 h -1 l -1.19,0.77 -1.3,1.33 -0.93,1.93 -0.9,1.23 -0.37,1.76 0.57,3 -0.53,1 -0.74,1.47 -0.43,1.13 -0.36,0.73 0.2,2.4 -0.67,0.76 v 0.83 l -1.76,0.64 -0.6,0.36 -0.83,0.53 -0.8,0.84 -1.1,1.69 -1.13,0.57 -1.46,-0.23 z m 28.18,-27.79 -1.63,-1.19 -0.4,-0.6 -0.43,-1.43 0.26,-1.9 a 16.51,16.51 0 0 1 5.53,-5.16 L 275,44.32 278.08,43 a 14.54,14.54 0 0 1 5.16,-0.37 l 2.59,0.8 2.56,0.53 c 2.8,1 1.7,3 0.2,4.93 l -1.23,2.49 -1.43,2.53 -1,1.86 -0.86,1.53 -2.36,1.5 -1.33,1.73 -1.9,1.47 -1.9,1.24 -1,1.63 c -0.46,3.32 0.6,5.52 3.23,6.55 l 3.36,0.07 4.76,-0.24 c 1.93,0 3.92,-0.43 5.85,-0.46 l 3.2,-0.3 1.56,-0.27 a 2,2 0 0 0 0.83,-1.69 L 299,67 l -0.23,-3.43 -0.24,-1 -0.76,-0.64 -0.2,-0.49 v -1.68 l 1,-0.9 0.93,0.5 0.93,1.63 0.37,0.76 0.4,1.6 0.6,1 0.53,1.4 0.8,1.23 1,1.2 a 3.09,3.09 0 0 1 0.53,5.06 l -0.63,1.13 -2.53,1 -1.63,0.69 -2,0.9 -1.53,0.5 -3.13,0.27 -1.33,-0.37 -1.36,-0.23 -2.1,-0.4 -1.4,0.3 L 286,76.46 284.6,76 h -1.73 -1.56 l -2.3,-0.13 -1.83,-0.16 h -1.73 -1.49 l -1.44,-1.06 -1.09,-1.13 -0.8,-1.23 -0.53,-1 -0.34,-1.63 -0.36,-2.09 0.1,-1.57 v -1.26 l -0.4,-1.6 v -1.26 l 0.64,-1.5 0.43,-1.26 -0.47,-0.94 -0.3,-1 -0.56,-0.7 z m 6.82,-9.28 -0.3,1.67 0.07,1.06 0.66,0.67 0.73,1.13 0.8,0.1 0.63,0.83 h 1.5 l 0.93,0.13 0.77,-0.36 0.2,-1.23 v -1.2 l -0.16,-1 -0.77,-1 -1.1,-0.4 -1,-0.23 -1.07,-0.3 -1.1,-0.16 -0.76,0.26 z m -3.26,6.79 2,-0.17 0.57,0.87 0.9,1.06 0.13,0.73 1,1.07 0.14,1.16 -0.3,0.7 -0.7,0.44 -0.57,0.23 -0.6,-0.73 -0.36,-0.77 -0.7,-0.17 -0.5,-0.79 -0.1,-0.54 -0.47,-0.56 -0.2,-0.87 -0.26,-1.66 z m -16.11,0.73 -0.76,-0.4 -0.57,0.37 -0.26,0.86 0.43,0.83 0.87,-0.06 v 0.73 l 0.47,0.73 h 0.73 l 1,0.16 0.83,-0.43 0.76,-0.4 0.37,-0.53 -0.27,-1 -0.76,-0.1 -0.5,-0.8 h -0.93 l -1.37,0.07 z m 2.27,-12.51 -1.5,-0.23 -0.9,0.4 -1,0.6 -0.6,1.11 -0.13,1.1 -0.36,0.73 0.56,1.67 0.37,1.1 1.06,1.16 0.87,0.3 0.7,0.57 1.33,-0.54 0.7,-0.46 0.53,-1 0.3,-0.87 -0.17,-1.56 v -0.83 l -0.1,-0.93 -0.4,-0.9 -0.57,-0.63 -0.66,-0.77 z"
         id="path15" />
      <path
         class="cls-2"
         d="m 326.66,45.81 2.26,-1.16 1.4,-0.47 1.83,-0.86 1.39,-0.47 1.73,-0.33 1.87,-0.66 1.29,-0.47 2.2,-0.43 0.6,-0.54 a 61.41,61.41 0 0 1 12.38,-1.29 c 1.56,0 2.62,1.79 1.86,4 l -0.43,1.9 -0.67,2.23 -0.86,0.66 -1.67,0.74 -0.83,0.86 -1.33,0.87 -0.68,1.25 -0.74,1.26 -0.53,1.3 -0.81,1.8 -1.5,1.5 -1.06,0.2 -0.93,0.8 -1.83,0.36 -1,0.6 -1.1,1 -0.43,0.8 -1,0.7 0.06,1.4 -0.13,1.33 h 1.2 l 2.36,-0.17 2.06,-0.2 1.53,-0.4 1.53,-0.3 1.63,-0.83 1,-0.4 2.1,-0.43 1.53,-0.3 1.33,-0.27 1.07,-0.2 h 1.19 c 4.1,0.33 9.19,0.93 8.59,6 l -1.3,1 -1,0.3 -1.93,0.4 h -1.5 l -1.46,0.1 -1.13,-0.16 -1.73,-0.17 -1,-0.2 -1.93,-0.7 -1.34,-0.23 -1.33,-0.14 -1.83,-0.13 -0.46,0.1 -1.18,-0.29 -2.17,0.24 -1.29,0.06 -1,-0.4 -0.46,0.7 -1.77,0.27 -0.7,-0.07 -2.26,0.27 -1.83,0.27 -1.33,0.26 -0.76,0.17 -0.37,0.66 -1.63,-0.16 -0.93,0.4 -1.23,0.86 -1.53,0.3 c -0.2,1.23 -1,2.33 -3.16,3.13 l -1.3,0.46 -1.17,0.24 -1.26,0.16 -1.43,-0.1 -1.57,-0.4 -1,-0.2 -1.06,-0.39 -1.07,-0.4 -0.69,-1 -0.14,-1.16 -0.13,-1.57 1,-1.19 0.94,-0.8 2.19,-0.54 1.23,-0.26 1.73,-0.33 1,-0.2 1.56,-0.1 1.33,-0.27 0.87,-0.17 2.13,-0.33 1.46,-0.2 1.07,-0.7 1.06,-0.63 0.83,-1.26 0.2,-0.94 0.37,-1.06 0.63,-0.83 0.73,-0.83 0.83,-0.87 0.17,-1.13 0.57,-0.63 0.33,-0.77 -0.9,-0.53 -0.67,-0.27 -0.56,-0.39 -0.73,-0.17 -0.8,0.07 -1.45,-0.34 -1.36,-0.33 -1,-0.7 -0.7,-0.56 -0.67,-0.87 -0.16,-0.76 v -1 l -0.17,-0.87 0.17,-0.63 0.16,-1.13 v -0.6 l 0.57,-0.77 z"
         id="path16" />
      <path
         class="cls-2"
         d="m 394.5,50.17 0.13,-1 0.27,-1.26 0.73,-0.83 0.46,-1.37 -0.93,-0.36 v -0.67 l -0.17,-0.93 0.4,-1.27 v -1 l 1.5,-1.63 a 4.75,4.75 0 0 1 3.83,-0.46 l 1.28,-1.33 -0.17,-2.89 -0.4,-2.13 c 1.43,-3.63 3,-5.52 4.69,-5.69 a 8.88,8.88 0 0 1 6,-0.33 l 1,1.29 0.49,2.4 0.57,0.73 0.47,1.5 1.36,0.43 0.63,-0.83 1.53,-1.9 1.7,-2.26 c 1.73,-2.86 4.56,-3.56 5.36,-3.26 1.06,0.37 2.09,2.56 2.16,6.35 l 0.86,0.47 1.93,0.33 h 2 a 4.26,4.26 0 0 1 1.3,2.43 3.05,3.05 0 0 1 -3.48,2.7 l -4.59,0.5 c -1.86,1.49 -1.83,2.89 0.17,4.19 l 2.49,-0.23 1.5,0.43 1.53,0.16 1.6,-0.33 1.66,0.2 c 1.3,0.83 0.56,4.86 -1.3,5.22 h -1.53 l -1,0.4 -6.72,0.76 c 0.06,2.2 1.36,4.46 -0.94,4.83 -4.55,0.7 -7.42,4.62 -4.49,8 0.43,3.13 -0.66,4.76 -3,6.52 -0.5,0.37 -0.66,1.23 -1.26,1.63 -0.6,0.4 -1,2.36 -1.37,2.76 -0.1,8.09 4.66,12.94 -2.39,13.11 a 3.33,3.33 0 0 1 -2.3,-0.6 l -3.29,-2 -1.6,-1.76 -1.4,-0.16 -2.43,-0.3 c -0.66,-0.24 -1.43,-1 -2.39,-2.9 l 0.4,-2.29 1.5,-1.77 c 2.22,-0.56 4.19,-0.53 4.72,0.7 l -0.6,0.47 -0.1,1.13 0.17,2 1.46,0.83 2.13,0.63 1.53,-0.06 0.57,-1.23 0.66,-1.37 c 0.3,-1.43 -0.5,-2.23 -0.76,-3.32 h -2 l -1.09,-0.53 c -1.07,-0.74 -1.24,-1.53 -0.54,-2.4 l 2,-2.26 a 8.1,8.1 0 0 0 0.17,-4.79 L 406,62.4 l -0.63,-1.23 -1.1,-0.66 -1.3,-1.07 -0.2,-1.59 0.17,-1.4 0.9,-1.07 0.66,-1.23 1.4,-0.73 1.86,-0.3 c 0.4,0.37 1.14,0.2 1.37,0.6 1.6,2.53 1.93,4.06 5.32,1 l 1.23,-0.5 2.5,-1.4 1.46,-1.4 1.63,-0.6 1.13,-0.76 -0.16,-0.93 L 421,49 h -1.16 l -0.84,0.43 -1.53,-0.16 -1.29,-0.17 -1.63,0.47 -1,-0.14 -1,0.4 -0.83,0.57 -6.19,0.56 -6.56,0.4 -1.43,1.14 -2,0.66 -0.79,0.5 c -0.4,0.1 -0.7,0.5 -1.17,0.3 l -1.23,-0.13 -1.83,0.16 -1.83,1.2 a 1.47,1.47 0 0 1 -1,0.67 l -1.5,-0.17 -0.7,0.43 c -8.31,3.4 -10.81,3.89 -10,1.13 0.33,-1.13 3,-2.66 5.79,-3.49 a 8.55,8.55 0 0 1 4.53,-0.57 l 1.49,-0.46 1.73,-0.43 1.87,-0.44 1.86,-0.3 1.1,-0.53 0.7,-0.9 z m 27.31,22.73 h -0.93 l -0.53,0.4 -0.3,0.67 -0.7,-0.07 H 418 l -0.76,-0.1 -0.6,0.4 -0.1,0.86 v 0.8 0.87 l 0.06,0.86 0.07,0.63 -0.07,0.54 -0.5,0.26 0.74,1.1 1.29,1 1.27,0.53 1.1,-0.1 0.49,-0.33 0.77,-0.4 0.27,-0.36 0.53,-0.5 0.56,-0.17 0.27,-0.9 0.57,-0.86 0.19,-0.44 0.1,-0.93 -0.23,-0.8 0.07,-0.69 -0.7,-0.7 -0.8,-0.57 -0.23,-0.66 -0.47,-0.4 z M 397.32,49 l 0.87,-0.67 1.23,-0.46 0.7,-0.54 2.26,-0.29 0.14,1.83 -1.3,0.23 -1.6,0.33 -0.93,0.27 h -1 l -0.4,-0.66 z M 411.47,42.81 411,42 l 0.14,-1 0.3,-1.4 0.63,-0.83 0.86,-0.67 1.07,-0.13 1,0.13 0.56,0.6 -0.1,0.77 -0.13,1 -0.66,0.16 -0.2,0.64 -0.14,1 -0.83,0.93 -1,0.3 -1.09,-0.7 z"
         id="path17" />
      <path
         class="cls-2"
         d="m 452.36,50.11 5,-1.07 1.86,-0.86 1.57,0.1 1.86,-1.53 1.83,-1.53 0.57,-2.47 a 30.41,30.41 0 0 1 4.12,-8.21 c 1.33,-1.87 2.73,-2.8 4.82,-0.74 1.54,1.47 2.13,4.2 2.6,8.69 a 2.34,2.34 0 0 0 2.41,1.13 c 1.57,0.1 3.06,0 3.56,1.43 0.5,1.43 0.34,4.32 -4.26,6.89 l -3,1.06 a 2.42,2.42 0 0 0 -2.33,1.37 c -0.67,1.23 -0.17,2.26 0.26,3.46 a 124.75,124.75 0 0 0 15.34,13.24 15.38,15.38 0 0 0 4.19,1.86 4.57,4.57 0 0 0 1.77,0.07 c 1.49,-0.14 2.46,-0.17 3.19,0.66 a 1.53,1.53 0 0 1 -0.23,2.4 4.52,4.52 0 0 1 -2.1,0.86 c -2.33,0.34 -4.76,0.47 -7.18,0.6 l -1.88,-0.52 -2.87,-1.4 -1.26,-1.1 -3.56,-3 -1.64,-2.26 -1.57,-1.4 -1.06,-1.16 -1.07,-1.17 -1.66,-2.23 -1.5,-1.2 -1.56,-0.76 -2.6,0.36 v 1.3 l -0.64,1 -5.85,7.15 -2,2.57 -1.73,1.89 -2.7,1.6 -1.43,0.27 -3,-0.47 -2,-2.1 c 0.23,-2.23 0.17,-2.33 2.43,-2.36 l 0.83,-0.73 1.43,-0.27 0.83,-1.06 1.23,-0.2 0.9,-0.87 0.3,-0.66 0.83,-0.4 1.37,-0.8 0.83,-0.73 0.63,-1.3 1.1,-1.26 0.83,-1.07 c 0.93,-1.73 0.63,-3.19 -1.63,-3.66 l -3.89,0.07 -2.1,-0.67 -0.55,-1.23 -0.8,-1.66 -0.46,-1.37 V 52.9 l 0.3,-1 1.3,-1.83 z"
         id="path18" />
      <path
         class="cls-2"
         d="m 522.13,43.78 c -0.34,-0.83 -1,-1.26 -0.64,-3 l -0.6,-4.29 0.3,-0.87 0.2,-0.77 -0.13,-1.76 0.7,-0.93 0.53,-0.7 0.53,-0.7 0.9,-0.23 0.33,-1.4 1.44,-0.2 0.89,-0.23 1.2,0.37 1,0.79 1.23,1.3 0.14,1 -0.24,1.3 0.4,1.4 1,0.9 c 2,-0.27 2.53,-1.23 1.66,-2.93 l 0.4,-1 0.53,-0.7 0.27,-1.06 0.86,-1.17 0.9,-0.23 2.4,-0.73 1.83,0.46 1.33,0.64 0.93,0.69 0.8,0.64 1.23,-0.17 0.83,-0.83 c 2.33,-0.73 3.33,-4.89 4.26,-6.92 2.3,-2.66 5.06,-1.33 6,1.89 l -0.37,1.2 0.4,0.67 0.5,1.3 1.27,1 v 3.33 c -1.53,3.52 -3,2.09 -5.92,5.39 l -0.14,2.09 0.94,0.7 0.06,1.13 0.6,1.37 0.57,1.16 1.46,0.73 2.06,-0.06 1.5,1.13 1.76,0.8 c 2,4.49 1.6,7.88 -4.06,9 l -1.26,-0.43 -1.86,0.26 -1.53,0.1 -1.2,0.37 -1.93,-0.37 c -3.13,-2.06 1.76,-3 2.49,-3.06 l 1.34,-0.8 -0.4,-1.39 -1.47,-0.74 c -4.36,-1.46 -8.52,-1.19 -11.31,2.4 l 0.13,2.5 1.27,2.22 0.23,3.27 0.57,1.93 1.43,1.26 1.39,1.06 0.8,0.64 1.07,0.06 1.69,1.63 1.43,0.54 2,0.43 a 5,5 0 0 1 2,4.52 c -0.17,3.43 -1.56,3.06 -3.73,3.16 -2,0.87 -4.49,2.4 -5.55,4.66 a 17.62,17.62 0 0 1 -5.23,3.36 l -2.89,0.37 c -1.63,0 -3.39,0.56 -5.26,-0.1 A 4.7,4.7 0 0 1 528,80.32 c -1.4,-2.83 -1.06,-4.36 3.13,-2.93 a 4,4 0 0 0 3.72,0.73 l 1.6,0.2 c 2.5,-1 3.76,-2.2 2.3,-3.76 -2.83,-2.06 -6.06,-2.13 -9.38,-1.63 -1.37,0.5 -2.23,0.6 -2.4,-0.43 -0.4,-1 0.6,-2.2 2.79,-2.73 l 3.07,-0.43 c 1.36,-0.5 1.93,-1.6 1.73,-3.26 l -0.2,-3.86 0.63,-1.33 0.13,-1.37 -0.7,-0.53 -1.4,-0.33 -1,-0.8 -0.56,-1.17 0.83,-0.83 c 0.63,-1 -0.07,-1.69 -1.1,-1.93 l -2.16,0.93 -0.7,0.94 -1.13,0.76 -1.76,0.13 -1,0.57 -1.63,1 -0.86,0.64 -1.47,0.73 -1.2,1.1 -1.13,0.06 -0.86,1.17 -1.33,0.06 c -0.7,1.4 -1,1.43 -2.27,1.73 -2.66,0.6 -5.65,1.07 -6.38,0.3 -1.6,-0.2 -1.4,-1.66 0.66,-4.32 1.17,-1.5 3.43,-1.13 5.26,-1.43 l 1.83,-0.63 1.53,-0.1 1,-0.87 1.5,-0.53 1.46,-0.73 1.33,-1 1.73,-0.33 1.33,-1 v -2 l 0.1,-1.56 -0.4,-1.4 -0.64,-1.56 -0.46,-1.07 -1.46,-1.7 z m 11.87,-1 -2.79,0.1 -0.27,0.9 -0.26,0.56 -0.67,1.1 0.7,1.3 0.7,0.1 0.43,0.56 0.8,0.6 0.07,0.57 h 0.56 l 0.53,0.4 1.47,-0.17 0.7,-0.23 v -1 -0.93 l -0.3,-0.74 0.6,-0.23 0.13,-0.5 -0.2,-0.83 -0.5,-0.47 -0.26,-0.79 -0.77,-0.24 h -0.7 z m 4.23,-3.43 0.13,-0.5 0.2,-0.69 0.37,-0.5 0.3,-0.37 0.63,-0.37 0.9,-0.16 0.83,0.13 0.73,0.4 0.63,0.5 0.54,1 0.19,0.3 0.2,1 0.17,0.56 -0.33,0.43 -0.27,0.57 -0.45,0.35 -1.17,-0.13 -1,0.27 -0.47,0.06 -0.33,-0.33 -0.6,-0.46 -0.76,-0.57 -0.2,-0.5 -0.3,-0.9 z"
         id="path19" />
    </g>
  </g>
</svg>
